<?xml version="1.0" encoding="UTF-8"?>
<svg id="Layer_1" data-name="Layer 1" xmlns="http://www.w3.org/2000/svg" viewBox="0 0 626.32 473.33">
  <defs>
    <style>
      .cls-1 {
        fill: #fff;
      }
    </style>
  </defs>
  <path class="cls-1" d="m320.38,19.99C162.4,19.99,33.08,115.29,33.08,232.41s129.37,219.22,287.3,219.22,288.69-102.15,288.69-219.22S479.7,19.99,320.38,19.99h0Zm0,14.97c137.5,0,249.17,88.51,249.17,197.45s-111.67,204.19-249.17,204.19-249.17-95.3-249.17-204.19S182.88,34.96,320.38,34.96Z"/>
  <path class="cls-1" d="m131.16,107.16l-12.3,12.25c1.39,0,4.12,2.73,4.12,2.73,1.34,0,19.04,13.59,21.77,16.31-1.39,1.34-8.18,20.43-8.18,20.43-6.79,16.31-13.64,32.68-13.64,44.92v2.73l5.45,28.61v1.34c4.12,16.36,6.79,32.68,9.52,44.92,0,4.12,0,5.45,2.78,6.79,8.13,8.23,21.77,25.88,39.47,59.95,0,1.34,1.34,1.34,1.34,2.73,1.39,4.12,4.12,6.79,5.45,8.18,4.13,2.74,9.5,2.74,13.64,0,8.38-5.21,15.01-12.81,19.04-21.82,1.34,1.39,5.45,5.45,5.45,6.84-14.97,24.49,10.86,33.96,20.43,29.9-5.45,14.97,14.92,27.27,32.68,19.09,2.73,9.52,10.91,12.25,19.04,13.64,6.84,1.34,17.7,2.68,34.07,1.34,25.83-2.73,48.99-9.52,58.51-14.97,19.04-9.52,30-21.77,35.4-29.95l2.73-2.73c1.39,4.12,4.12,6.79,6.79,9.52,4.3,4.6,10.11,7.5,16.36,8.18,4.12-1.34,6.79-2.73,8.18-6.79,8.18-20.43,27.22-44.92,42.2-61.24l1.34-2.78c4.12-12.25,14.97-40.86,21.82-55.83l4.12-12.25v-2.73c1.34-4.12,1.34-9.52,1.34-13.59,0-20.43-2.73-39.52-9.52-55.83-1.94-6.24-4.71-12.2-8.23-17.7l-2.68-5.45c4.12-6.79,16.31-14.97,25.88-20.43l1.34-1.34-12.25-12.3-8.18,5.45c-9.52,5.45-17.7,8.23-24.49,6.84,0-1.39-6.79-5.45-6.79-5.45h-9.62l2.73,2.73c5.45,6.79,8.23,10.86,12.3,17.7l1.34,4.12,2.73,5.4,2.73,8.18,1.34,1.34,1.39,4.12,5.45,19.04c5.4,20.43,6.79,36.74,8.13,50.38l-1.34,1.34-6.79,19.04c-6.84,19.09-15.03,43.64-17.75,53.16v1.34c-19.04,19.04-32.63,40.86-38.08,54.5q-1.39,1.34-1.39,2.73c-1.34,0-4.07-2.73-5.4-4.12-4.12-4.12-6.84-12.25-6.84-21.77,0-10.91,5.45-20.43,13.64-25.88,1.34-1.34,1.34-4.12,1.34-4.12-2.73-13.59,1.39-32.63,9.52-38.08l1.39-1.39-1.39-1.34c-24.49-17.7-35.35-49.04-36.74-73.59v-2.68l-2.73,1.39c-1.34,0-2.73,2.73-2.73,2.73,0,4.12-1.34,9.52-1.34,13.59,0,12.3,2.68,23.16,4.07,27.27,2.73,12.25,9.52,24.49,20.43,35.35v1.39c-4.12,5.45-6.79,17.7-6.79,27.22,0,2.73,0,5.45,1.34,8.18-10.86,8.13-13.59,20.38-14.92,28.56v8.23l-5.51,6.79v1.34c-10.86,13.59-17.65,23.16-35.35,31.29-19.04,9.52-54.5,16.36-78.99,13.64-8.18-1.39-8.18-8.18-8.18-8.18,0-1.34,1.39-2.73,1.39-4.07l2.68-1.39c21.82,1.39,43.59-1.34,53.11-5.4l2.78-4.12,1.34-1.34h-2.73c-19.04,4.12-57.17-1.39-76.26-9.57-23.16-9.52-29.95-17.7-47.65-40.86l-5.45-6.79c-.05-6.11-1.44-12.13-4.07-17.65-4.12-5.45-8.18-8.23-9.52-9.57,1.68-4.8,2.6-9.84,2.73-14.92.24-7.05-1.17-14.07-4.12-20.48,13.64-9.52,20.43-20.43,20.43-32.68,0-5.45-4.07-13.59-4.07-13.59l-5.45-2.73,1.34,4.12c1.39,19.04-17.7,32.63-31.29,40.81l-2.73,4.12h1.34c10.91,6.74,10.91,27.17,8.18,39.47l1.39,1.34,5.45,4.12c9.52,13.59,8.13,34.01-2.73,44.92q-2.73,2.73-4.12,2.73c-1.34,0-2.73-4.12-2.73-5.45l-4.07-5.45c-8.47-19.08-19.46-36.94-32.68-53.11l-1.39-1.39c-2.39-21.51-6.01-42.87-10.86-63.96l-2.73-9.52v-2.73c1.34-20.43,6.79-35.4,14.97-53.11l4.12-10.91,4.07-9.52v-1.34c5.58-5.79,11.49-11.25,17.7-16.36l4.07-2.73-5.45-1.34s-6.79,1.34-14.92,5.45h-1.39c-6.84,2.73-13.64,5.4-19.04,2.68,0,0-12.3-6.79-13.64-8.13h.05Zm100.71,243.71c2.73,2.73,12.3,10.91,16.36,13.59-14.97,2.73-20.43-6.79-16.36-13.59Zm24.55,19.04c6.79,4.12,17.7,6.79,27.22,9.52-20.43,9.57-32.68,1.39-27.27-9.52h.05Z"/>
  <g>
    <path class="cls-1" d="m222.35,52.67l4.12,4.12,10.86,9.52,6.79,6.79c5.45,4.12,6.84,6.79,6.84,8.18,0,0-1.39,1.34-2.73,1.34l-1.39,1.39-1.34,4.12h2.73c16.31-1.39,29.95,9.52,39.47,17.65,17.7,14.97,29.95,39.52,32.68,62.63l12.25,65.35,5.45,9.57,1.34,2.68,1.39,4.12c2.73,4.12,5.45,6.79,5.45,8.18l6.79,4.07,9.52,9.52,2.73,2.73,4.12,4.12c0,1.34,13.59,2.68,13.59,2.68,23.16,2.73,21.77,14.97,21.77,14.97,0,0,13.64-19.04-19.04-27.22,0,0-9.52-1.34-10.91-1.34l-2.73-5.45c-1.34,0-1.34-1.34-1.34-1.34l-10.91-9.57-4.12-2.73c0-1.34-4.01-10.86-4.01-10.86l-5.45-13.69c-1.91-6.69-3.29-13.52-4.12-20.43l-1.34-5.3-4.12-27.27,1.39-5.4c1.34-10.91,5.45-21.82,12.25-34.07,6.79-13.64,21.77-23.16,21.77-23.16,10.91-6.79,27.27-10.86,35.4-12.25,4.12,0,4.12-2.73,5.45-4.12v-1.34h-1.34c-3.54-1.24-7.2-2.16-10.91-2.73v-1.34s1.34-1.39,2.73-4.12l6.79-5.4,4.12-4.12s17.65-16.31,19.04-19.04l-16.36-4.12-17.7,17.7c-10.86,10.91-24.49,24.55-29.95,27.27-14.92,5.4-29.95,20.38-36.74,32.68l-4.12,10.86c-4.07-12.25-9.52-23.16-17.65-31.29-8.31-9.94-19.13-17.47-31.34-21.82-6.74-6.84-29.9-27.27-42.2-36.79l-14.97,4.07Z"/>
    <path class="cls-1" d="m320.38,244.66c1.39-5.45-1.34-12.25-1.34-12.25l-1.39,4.12c-1.34,4.07-5.45,8.13-12.25,10.81l-1.39,1.39,23.16,32.68,1.39,1.39,5.45,6.79,9.52,5.45,2.73,1.34,10.86,6.84,9.52,5.45h1.39l14.97,1.34c8.18,0,13.64,4.12,16.36,5.45,8.13,6.79,4.07,16.31,4.07,16.31,0,0,12.25-10.86,4.12-23.16-2.78-4.07-6.84-8.13-19.09-9.52l-14.97-2.68-8.18-5.45-10.91-5.45-2.68-1.39-8.23-4.07-23.11-35.4Z"/>
    <path class="cls-1" d="m306.74,314.08l2.73,1.39,9.57,4.12c6.79,2.68,14.92,6.74,19.04,8.13l10.91,6.79c1.34,0,12.25-1.34,19.04,0,9.52,0,16.36,4.12,20.43,8.18,2.36,4.86,1.83,10.63-1.39,14.97,1.39-1.34,10.91-6.79,10.91-17.7-1.34-9.52-9.52-17.7-42.2-17.7l-8.18-5.45-2.73-1.34-13.59-6.84-12.25-4.07-2.73-4.12c-4.12-6.79-9.57-13.59-13.64-19.04l-1.34-1.34s-8.23-10.91-8.23-12.25c1.39-5.45,0-12.25,0-12.25,0,0-1.34,2.68-4.07,5.4-1.34,2.73-8.13,6.84-12.25,8.23l-1.34,1.29,28.56,38.08,2.73,5.51Z"/>
    <path class="cls-1" d="m270,329.06l5.45,5.45,10.91,5.45,9.52,5.45h1.34l6.84,4.12,10.86,5.4c.7.79,1.68,1.28,2.73,1.39l14.97-1.39c9.52,0,19.04,0,25.88,2.73,8.18,4.12,5.45,10.91,5.45,10.91,0,0,8.13-5.45,6.79-12.3-1.39-5.4-8.18-12.25-29.95-13.59h-19.04l-9.57-5.45-4.12-2.73c-1.34,0-13.59-6.79-13.59-6.79l-9.52-2.73c0-1.39-6.79-10.91-6.79-10.91l-2.73-4.12-8.18-10.81-4.12-4.12c0-1.39-4.07-6.79-4.07-6.79,0,0,4.12-6.84,4.12-13.64l-4.12,4.12c-2.73,2.73-12.25,6.79-19.04,8.13h-2.73l21.77,28.61,10.91,13.59Z"/>
  </g>
</svg>