<?xml version="1.0" encoding="UTF-8"?>
<svg id="Layer_1" data-name="Layer 1" xmlns="http://www.w3.org/2000/svg" viewBox="0 0 1578.65 468.18">
  <defs>
    <style>
      .cls-1 {
        stroke-miterlimit: 10;
      }

      .cls-1, .cls-2 {
        stroke: #fff;
      }

      .cls-1, .cls-2, .cls-3, .cls-4 {
        fill: none;
      }

      .cls-2, .cls-3 {
        stroke-linecap: round;
        stroke-linejoin: round;
      }

      .cls-3 {
        stroke: #de7d6c;
        stroke-width: 4px;
      }

      .cls-5 {
        fill: #fff;
        font-family: Poppins-Bold, Poppins;
        font-size: 13px;
        font-weight: 700;
      }
    </style>
  </defs>
  <g>
    <line class="cls-3" x1="36.17" y1="61.4" x2="36.17" y2="65.54"/>
    <path class="cls-2" d="m84.49,51.16v-5.59c-.06-.53-.22-.76-.75-.74h-2.51c-.6-.02-.94.15-.9.82,0,0,.03,1.73-.02,1.92"/>
    <path class="cls-2" d="m36.17,65.54s-.79,0-1.11,0c-3.21.01-6.41.01-9.62,0-.45,0-.68,0-.68,0l-3.31,5.57"/>
    <path class="cls-2" d="m53.76,57.26c-5.72,0-21.68,0-21.68,0v4.16"/>
    <path class="cls-2" d="m87.22,56.88c-.01,9.57,0,21.21,0,30.78"/>
    <path class="cls-2" d="m20.94,87.66h67.61"/>
    <path class="cls-2" d="m71.38,38.83v1.04s18.79,16.23,19.16,16.42"/>
    <path class="cls-2" d="m55.33,57.43s.14,14.45.14,14.77c0,5.08,0,15.24,0,15.24"/>
    <line class="cls-2" x1="69.31" y1="54.81" x2="69.31" y2="62.51"/>
    <path class="cls-2" d="m71.38,39.87c-.69.49-18.86,15.92-18.86,15.92l1.97,2.34"/>
    <path class="cls-2" d="m76.08,84.69c0-4.46,0-13.62,0-13.62,0,0-.07-1.3-1.3-1.3,0-4.09-6.9-4.09-6.9,0-1.09,0-1.2,1.2-1.2,1.2v13.72"/>
    <line class="cls-2" x1="55.33" y1="61.4" x2="32.07" y2="61.4"/>
    <path class="cls-2" d="m25.08,71.39v16.05"/>
    <path class="cls-2" d="m36.17,65.54s13.12,0,19.08,0"/>
    <line class="cls-2" x1="55.46" y1="71.09" x2="21.46" y2="71.08"/>
    <polyline class="cls-2" points="71.38 43.36 88.81 58.24 90.54 56.29"/>
    <line class="cls-2" x1="54.51" y1="58.15" x2="71.38" y2="43.36"/>
    <rect class="cls-2" x="63.76" y="54.5" width="15.17" height="8.32"/>
    <g>
      <path class="cls-2" d="m43.2,74.11v10.51"/>
      <path class="cls-2" d="m36.32,74.11v10.58"/>
      <path class="cls-2" d="m49.86,79.44h-20.12"/>
      <rect class="cls-2" x="29.42" y="73.89" width="20.76" height="11.05"/>
    </g>
    <rect class="cls-2" x="66.69" y="86.69" width="9.39" height=".97"/>
    <rect class="cls-2" x="66.69" y="85.71" width="9.39" height=".97"/>
    <rect class="cls-2" x="66.69" y="84.74" width="9.39" height=".97"/>
    <rect class="cls-2" x="65.14" y="84.69" width="1.55" height="2.97"/>
    <rect class="cls-2" x="76.08" y="84.69" width="1.55" height="2.97"/>
  </g>
  <text class="cls-5" transform="translate(541.06 167.11)"><tspan x="0" y="0">PLUMBING</tspan></text>
  <g>
    <rect class="cls-3" x="1126.2" y="135.69" width="15" height="9.98"/>
    <rect class="cls-4" x="1058.48" y="94.49" width="71.03" height="71.03"/>
  </g>
  <g>
    <path class="cls-2" d="m193.37,34.53v-5.59c-.06-.53-.22-.76-.75-.74h-2.51c-.6-.02-.94.15-.9.82,0,0,.03,1.73-.02,1.92"/>
    <path class="cls-2" d="m145.06,48.91s-.79,0-1.11,0c-3.21.01-6.41.01-9.62,0-.45,0-.68,0-.68,0l-3.31,5.57"/>
    <path class="cls-2" d="m162.64,40.63c-5.72,0-21.68,0-21.68,0v4.16"/>
    <path class="cls-2" d="m196.11,40.25c-.01,9.57,0,21.21,0,30.78"/>
    <path class="cls-2" d="m129.82,71.03h67.61"/>
    <path class="cls-3" d="m180.27,22.21v1.04s18.79,16.23,19.16,16.42"/>
    <path class="cls-2" d="m164.22,40.8s.14,14.45.14,14.77c0,5.08,0,15.24,0,15.24"/>
    <line class="cls-2" x1="178.2" y1="38.19" x2="178.2" y2="45.88"/>
    <path class="cls-3" d="m180.27,23.24c-.69.49-18.86,15.92-18.86,15.92l1.97,2.34"/>
    <path class="cls-2" d="m184.96,68.06c0-4.46,0-13.62,0-13.62,0,0-.07-1.3-1.3-1.3,0-4.09-6.9-4.09-6.9,0-1.09,0-1.2,1.2-1.2,1.2v13.72"/>
    <line class="cls-2" x1="164.22" y1="44.77" x2="140.96" y2="44.78"/>
    <path class="cls-2" d="m133.96,54.76v16.05"/>
    <path class="cls-2" d="m145.06,48.91s13.12,0,19.08,0"/>
    <line class="cls-2" x1="164.35" y1="54.46" x2="130.34" y2="54.45"/>
    <line class="cls-2" x1="145.06" y1="44.77" x2="145.06" y2="48.91"/>
    <polyline class="cls-2" points="180.27 26.73 197.69 41.62 199.42 39.67"/>
    <line class="cls-2" x1="163.4" y1="41.52" x2="180.27" y2="26.73"/>
    <rect class="cls-2" x="172.65" y="37.87" width="15.17" height="8.32"/>
    <g>
      <path class="cls-2" d="m152.09,57.48v10.51"/>
      <path class="cls-2" d="m145.21,57.48v10.58"/>
      <path class="cls-2" d="m158.74,62.81h-20.12"/>
      <rect class="cls-2" x="138.3" y="57.26" width="20.76" height="11.05"/>
    </g>
    <rect class="cls-2" x="175.57" y="70.06" width="9.39" height=".97"/>
    <rect class="cls-2" x="175.57" y="69.08" width="9.39" height=".97"/>
    <rect class="cls-2" x="175.57" y="68.11" width="9.39" height=".97"/>
    <rect class="cls-2" x="174.03" y="68.06" width="1.55" height="2.97"/>
    <rect class="cls-2" x="184.96" y="68.06" width="1.55" height="2.97"/>
  </g>
  <text class="cls-5" transform="translate(332.42 312.64)"><tspan x="0" y="0">ROOF</tspan></text>
  <text class="cls-5" transform="translate(296 166.58)"><tspan x="0" y="0">HOME</tspan></text>
  <rect class="cls-4" x="669.09" y="94.49" width="71.03" height="71.03"/>
  <g>
    <path class="cls-3" d="m172.24,115.9s.14,14.45.14,14.77c0,5.08,0,15.24,0,15.24"/>
    <polyline class="cls-3" points="188.29 101.83 205.72 116.72 207.45 114.76"/>
    <line class="cls-3" x1="171.42" y1="116.62" x2="188.29" y2="101.83"/>
    <path class="cls-2" d="m201.39,109.63v-5.59c-.06-.53-.22-.76-.75-.74h-2.51c-.6-.02-.94.15-.9.82,0,0,.03,1.73-.02,1.92"/>
    <path class="cls-2" d="m153.08,124.01s-.79,0-1.11,0c-3.21.01-6.41.01-9.62,0-.45,0-.68,0-.68,0l-3.31,5.57"/>
    <path class="cls-2" d="m170.67,115.73c-5.72,0-21.68,0-21.68,0v4.16"/>
    <path class="cls-2" d="m204.13,115.35c-.01,9.57,0,21.21,0,30.78"/>
    <path class="cls-2" d="m137.84,146.13h67.61"/>
    <path class="cls-2" d="m188.29,97.31v1.04s18.79,16.23,19.16,16.42"/>
    <line class="cls-2" x1="186.22" y1="113.29" x2="186.22" y2="120.98"/>
    <path class="cls-2" d="m188.29,98.34c-.69.49-18.86,15.92-18.86,15.92l1.97,2.34"/>
    <path class="cls-2" d="m192.99,143.16c0-4.46,0-13.62,0-13.62,0,0-.07-1.3-1.3-1.3,0-4.09-6.9-4.09-6.9,0-1.09,0-1.2,1.2-1.2,1.2v13.72"/>
    <line class="cls-2" x1="172.24" y1="119.87" x2="148.98" y2="119.88"/>
    <path class="cls-2" d="m141.99,129.86v16.05"/>
    <path class="cls-2" d="m153.08,124.01s13.12,0,19.08,0"/>
    <line class="cls-2" x1="172.37" y1="129.56" x2="138.37" y2="129.55"/>
    <line class="cls-2" x1="153.08" y1="119.87" x2="153.08" y2="124.01"/>
    <rect class="cls-2" x="180.67" y="112.97" width="15.17" height="8.32"/>
    <g>
      <path class="cls-2" d="m160.11,132.58v10.51"/>
      <path class="cls-2" d="m153.23,132.58v10.58"/>
      <path class="cls-2" d="m166.77,137.91h-20.12"/>
      <rect class="cls-2" x="146.33" y="132.36" width="20.76" height="11.05"/>
    </g>
    <rect class="cls-2" x="183.59" y="145.16" width="9.39" height=".97"/>
    <rect class="cls-2" x="183.59" y="144.18" width="9.39" height=".97"/>
    <rect class="cls-2" x="183.59" y="143.21" width="9.39" height=".97"/>
    <rect class="cls-2" x="182.05" y="143.16" width="1.55" height="2.97"/>
    <rect class="cls-2" x="192.99" y="143.16" width="1.55" height="2.97"/>
  </g>
  <text class="cls-5" transform="translate(681.93 68.39)"><tspan x="0" y="0">INSULATION</tspan></text>
  <rect class="cls-4" x="566.03" y="274.54" width="71.03" height="71.03"/>
  <g>
    <path class="cls-3" d="m55.64,182.41c0-4.46,0-13.62,0-13.62,0,0-.07-1.3-1.3-1.3,0-4.09-6.9-4.09-6.9,0-1.09,0-1.2,1.2-1.2,1.2v13.72"/>
    <path class="cls-2" d="m64.05,148.87v-5.59c-.06-.53-.22-.76-.75-.74h-2.51c-.6-.02-.94.15-.9.82,0,0,.03,1.73-.02,1.92"/>
    <path class="cls-2" d="m15.74,163.26s-.79,0-1.11,0c-3.21.01-6.41.01-9.62,0-.45,0-.68,0-.68,0l-3.31,5.57"/>
    <path class="cls-2" d="m33.32,154.97c-5.72,0-21.68,0-21.68,0v4.16"/>
    <path class="cls-2" d="m66.78,154.59c-.01,9.57,0,21.21,0,30.78"/>
    <path class="cls-2" d="m.5,185.38h67.61"/>
    <path class="cls-2" d="m50.95,136.55v1.04s18.79,16.23,19.16,16.42"/>
    <path class="cls-2" d="m34.89,155.15s.14,14.45.14,14.77c0,5.08,0,15.24,0,15.24"/>
    <line class="cls-2" x1="48.87" y1="152.53" x2="48.87" y2="160.22"/>
    <path class="cls-2" d="m50.95,137.59c-.69.49-18.86,15.92-18.86,15.92l1.97,2.34"/>
    <line class="cls-2" x1="34.89" y1="159.11" x2="11.64" y2="159.12"/>
    <path class="cls-2" d="m4.64,169.1v16.05"/>
    <path class="cls-2" d="m15.74,163.26s13.12,0,19.08,0"/>
    <line class="cls-2" x1="35.03" y1="168.81" x2="1.02" y2="168.8"/>
    <line class="cls-2" x1="15.74" y1="159.11" x2="15.74" y2="163.26"/>
    <polyline class="cls-2" points="50.95 141.07 68.37 155.96 70.1 154.01"/>
    <line class="cls-2" x1="34.08" y1="155.86" x2="50.95" y2="141.07"/>
    <rect class="cls-2" x="43.32" y="152.21" width="15.17" height="8.32"/>
    <g>
      <path class="cls-2" d="m22.77,171.83v10.51"/>
      <path class="cls-2" d="m15.89,171.83v10.58"/>
      <path class="cls-2" d="m29.42,177.16H9.3"/>
      <rect class="cls-2" x="8.98" y="171.6" width="20.76" height="11.05"/>
    </g>
    <rect class="cls-2" x="46.25" y="184.4" width="9.39" height=".97"/>
    <rect class="cls-2" x="46.25" y="183.43" width="9.39" height=".97"/>
    <rect class="cls-2" x="46.25" y="182.45" width="9.39" height=".97"/>
    <rect class="cls-2" x="44.7" y="182.41" width="1.55" height="2.97"/>
    <rect class="cls-2" x="55.64" y="182.41" width="1.55" height="2.97"/>
  </g>
  <text class="cls-5" transform="translate(667.01 460.3)"><tspan x="0" y="0">DOORS</tspan></text>
  <g>
    <rect class="cls-4" x="928.68" y="94.49" width="71.03" height="71.03"/>
    <g>
      <g>
        <path class="cls-2" d="m993.66,109.16v-5.59c-.06-.53-.22-.76-.75-.74h-2.51c-.6-.02-.94.15-.9.82,0,0,.03,1.73-.02,1.92"/>
        <path class="cls-2" d="m945.35,123.55s-.79,0-1.11,0c-3.21.01-6.41.01-9.62,0-.45,0-.68,0-.68,0l-3.31,5.57"/>
        <path class="cls-2" d="m962.93,115.26c-5.72,0-21.68,0-21.68,0v4.16"/>
        <path class="cls-2" d="m996.4,114.88c-.01,9.57,0,21.21,0,30.78"/>
        <path class="cls-2" d="m930.11,145.67h67.61"/>
        <path class="cls-2" d="m980.56,96.84v1.04s18.79,16.23,19.16,16.42"/>
        <path class="cls-2" d="m964.51,115.44s.14,14.45.14,14.77c0,5.08,0,15.24,0,15.24"/>
        <line class="cls-2" x1="978.49" y1="112.82" x2="978.49" y2="120.51"/>
        <path class="cls-2" d="m980.56,97.88c-.69.49-18.86,15.92-18.86,15.92l1.97,2.34"/>
        <path class="cls-2" d="m985.26,142.7c0-4.46,0-13.62,0-13.62,0,0-.07-1.3-1.3-1.3,0-4.09-6.9-4.09-6.9,0-1.09,0-1.2,1.2-1.2,1.2v13.72"/>
        <line class="cls-2" x1="964.51" y1="119.4" x2="941.25" y2="119.41"/>
        <path class="cls-2" d="m934.26,129.39v16.05"/>
        <path class="cls-2" d="m945.35,123.55s13.12,0,19.08,0"/>
        <line class="cls-2" x1="964.64" y1="129.1" x2="930.64" y2="129.09"/>
        <line class="cls-2" x1="945.35" y1="119.4" x2="945.35" y2="123.55"/>
        <polyline class="cls-2" points="980.56 101.36 997.99 116.25 999.72 114.3"/>
        <line class="cls-2" x1="963.69" y1="116.15" x2="980.56" y2="101.36"/>
        <rect class="cls-2" x="972.94" y="112.5" width="15.17" height="8.32"/>
        <g>
          <path class="cls-3" d="m952.38,132.12v10.51"/>
          <path class="cls-3" d="m945.5,132.12v10.58"/>
          <path class="cls-3" d="m959.04,137.44h-20.12"/>
          <rect class="cls-3" x="938.59" y="131.89" width="20.76" height="11.05"/>
        </g>
        <rect class="cls-2" x="975.86" y="144.69" width="9.39" height=".97"/>
        <rect class="cls-2" x="975.86" y="143.72" width="9.39" height=".97"/>
        <rect class="cls-2" x="975.86" y="142.74" width="9.39" height=".97"/>
        <rect class="cls-2" x="974.32" y="142.7" width="1.55" height="2.97"/>
        <rect class="cls-2" x="985.26" y="142.7" width="1.55" height="2.97"/>
      </g>
      <text class="cls-5" transform="translate(929.89 167.11)"><tspan x="0" y="0">WINDOWS</tspan></text>
    </g>
  </g>
  <g>
    <g>
      <path class="cls-2" d="m1123.92,108.63v-5.59c-.06-.53-.22-.76-.75-.74h-2.51c-.6-.02-.94.15-.9.82,0,0,.03,1.73-.02,1.92"/>
      <path class="cls-2" d="m1075.61,123.02s-.79,0-1.11,0c-3.21.01-6.41.01-9.62,0-.45,0-.68,0-.68,0l-3.31,5.57"/>
      <path class="cls-2" d="m1093.2,114.73c-5.72,0-21.68,0-21.68,0v4.16"/>
      <path class="cls-2" d="m1126.66,114.35c-.01,9.57,0,21.21,0,30.78"/>
      <path class="cls-2" d="m1060.37,145.14h67.61"/>
      <path class="cls-2" d="m1110.82,96.31v1.04s18.79,16.23,19.16,16.42"/>
      <path class="cls-2" d="m1094.77,114.91s.14,14.45.14,14.77c0,5.08,0,15.24,0,15.24"/>
      <line class="cls-2" x1="1108.75" y1="112.29" x2="1108.75" y2="119.98"/>
      <path class="cls-2" d="m1110.82,97.35c-.69.49-18.86,15.92-18.86,15.92l1.97,2.34"/>
      <path class="cls-2" d="m1115.52,142.17c0-4.46,0-13.62,0-13.62,0,0-.07-1.3-1.3-1.3,0-4.09-6.9-4.09-6.9,0-1.09,0-1.2,1.2-1.2,1.2v13.72"/>
      <line class="cls-2" x1="1094.77" y1="118.87" x2="1071.51" y2="118.88"/>
      <path class="cls-2" d="m1064.52,128.86v16.05"/>
      <path class="cls-2" d="m1075.61,123.02s13.12,0,19.08,0"/>
      <line class="cls-2" x1="1094.9" y1="128.56" x2="1060.9" y2="128.56"/>
      <line class="cls-2" x1="1075.61" y1="118.87" x2="1075.61" y2="123.02"/>
      <polyline class="cls-2" points="1110.82 100.83 1128.25 115.72 1129.98 113.77"/>
      <line class="cls-2" x1="1093.95" y1="115.62" x2="1110.82" y2="100.83"/>
      <rect class="cls-2" x="1103.2" y="111.97" width="15.17" height="8.32"/>
      <g>
        <path class="cls-2" d="m1082.64,131.59v10.51"/>
        <path class="cls-2" d="m1075.76,131.59v10.58"/>
        <path class="cls-2" d="m1089.3,136.91h-20.12"/>
        <rect class="cls-2" x="1068.86" y="131.36" width="20.76" height="11.05"/>
      </g>
      <rect class="cls-2" x="1106.12" y="144.16" width="9.39" height=".97"/>
      <rect class="cls-2" x="1106.12" y="143.19" width="9.39" height=".97"/>
      <rect class="cls-2" x="1106.12" y="142.21" width="9.39" height=".97"/>
      <rect class="cls-2" x="1104.58" y="142.17" width="1.55" height="2.97"/>
      <rect class="cls-2" x="1115.52" y="142.17" width="1.55" height="2.97"/>
    </g>
    <text class="cls-5" transform="translate(1067.22 166.58)"><tspan x="0" y="0">GARAGE</tspan></text>
  </g>
  <g>
    <polygon class="cls-3" points="1248.49 145.67 1263.48 145.67 1263.48 135.69 1255.98 130.65 1248.49 135.69 1248.49 145.67"/>
    <rect class="cls-4" x="1188.28" y="94.49" width="71.03" height="71.03"/>
    <g>
      <g>
        <path class="cls-2" d="m1253.26,109.16v-5.59c-.06-.53-.22-.76-.75-.74h-2.51c-.6-.02-.94.15-.9.82,0,0,.03,1.73-.02,1.92"/>
        <path class="cls-2" d="m1204.95,123.55s-.79,0-1.11,0c-3.21.01-6.41.01-9.62,0-.45,0-.68,0-.68,0l-3.31,5.57"/>
        <path class="cls-2" d="m1222.53,115.26c-5.72,0-21.68,0-21.68,0v4.16"/>
        <path class="cls-2" d="m1255.99,114.88c-.01,9.57,0,21.21,0,30.78"/>
        <path class="cls-2" d="m1189.71,145.67h67.61"/>
        <path class="cls-2" d="m1240.16,96.84v1.04s18.79,16.23,19.16,16.42"/>
        <path class="cls-2" d="m1224.1,115.44s.14,14.45.14,14.77c0,5.08,0,15.24,0,15.24"/>
        <line class="cls-2" x1="1238.08" y1="112.82" x2="1238.08" y2="120.51"/>
        <path class="cls-2" d="m1240.16,97.88c-.69.49-18.86,15.92-18.86,15.92l1.97,2.34"/>
        <path class="cls-2" d="m1244.85,142.7c0-4.46,0-13.62,0-13.62,0,0-.07-1.3-1.3-1.3,0-4.09-6.9-4.09-6.9,0-1.09,0-1.2,1.2-1.2,1.2v13.72"/>
        <line class="cls-2" x1="1224.1" y1="119.4" x2="1200.85" y2="119.41"/>
        <path class="cls-2" d="m1193.85,129.39v16.05"/>
        <path class="cls-2" d="m1204.95,123.55s13.12,0,19.08,0"/>
        <line class="cls-2" x1="1224.24" y1="129.1" x2="1190.23" y2="129.09"/>
        <line class="cls-2" x1="1204.95" y1="119.4" x2="1204.95" y2="123.55"/>
        <polyline class="cls-2" points="1240.16 101.36 1257.58 116.25 1259.31 114.3"/>
        <line class="cls-2" x1="1223.29" y1="116.15" x2="1240.16" y2="101.36"/>
        <rect class="cls-2" x="1232.53" y="112.5" width="15.17" height="8.32"/>
        <g>
          <path class="cls-2" d="m1211.98,132.12v10.51"/>
          <path class="cls-2" d="m1205.1,132.12v10.58"/>
          <path class="cls-2" d="m1218.63,137.44h-20.12"/>
          <rect class="cls-2" x="1198.19" y="131.89" width="20.76" height="11.05"/>
        </g>
        <rect class="cls-2" x="1235.46" y="144.69" width="9.39" height=".97"/>
        <rect class="cls-2" x="1235.46" y="143.72" width="9.39" height=".97"/>
        <rect class="cls-2" x="1235.46" y="142.74" width="9.39" height=".97"/>
        <rect class="cls-2" x="1233.91" y="142.7" width="1.55" height="2.97"/>
        <rect class="cls-2" x="1244.85" y="142.7" width="1.55" height="2.97"/>
      </g>
      <text class="cls-5" transform="translate(1197.27 167.11)"><tspan x="0" y="0">GAZEBO</tspan></text>
    </g>
  </g>
  <g>
    <rect class="cls-4" x="1318.08" y="94.49" width="71.03" height="71.03"/>
    <g>
      <g>
        <path class="cls-2" d="m1383.06,109.16v-5.59c-.06-.53-.22-.76-.75-.74h-2.51c-.6-.02-.94.15-.9.82,0,0,.03,1.73-.02,1.92"/>
        <path class="cls-2" d="m1334.75,123.55s-.79,0-1.11,0c-3.21.01-6.41.01-9.62,0-.45,0-.68,0-.68,0l-3.31,5.57"/>
        <path class="cls-2" d="m1352.33,115.26c-5.72,0-21.68,0-21.68,0v4.16"/>
        <path class="cls-2" d="m1385.79,114.88c-.01,9.57,0,21.21,0,30.78"/>
        <path class="cls-2" d="m1319.51,145.67h67.61"/>
        <path class="cls-2" d="m1369.95,96.84v1.04s18.79,16.23,19.16,16.42"/>
        <path class="cls-2" d="m1353.9,115.44s.14,14.45.14,14.77c0,5.08,0,15.24,0,15.24"/>
        <line class="cls-2" x1="1367.88" y1="112.82" x2="1367.88" y2="120.51"/>
        <path class="cls-2" d="m1369.95,97.88c-.69.49-18.86,15.92-18.86,15.92l1.97,2.34"/>
        <path class="cls-2" d="m1374.65,142.7c0-4.46,0-13.62,0-13.62,0,0-.07-1.3-1.3-1.3,0-4.09-6.9-4.09-6.9,0-1.09,0-1.2,1.2-1.2,1.2v13.72"/>
        <line class="cls-2" x1="1353.9" y1="119.4" x2="1330.65" y2="119.41"/>
        <path class="cls-2" d="m1323.65,129.39v16.05"/>
        <path class="cls-2" d="m1334.75,123.55s13.12,0,19.08,0"/>
        <line class="cls-2" x1="1354.04" y1="129.1" x2="1320.03" y2="129.09"/>
        <line class="cls-2" x1="1334.75" y1="119.4" x2="1334.75" y2="123.55"/>
        <polyline class="cls-2" points="1369.95 101.36 1387.38 116.25 1389.11 114.3"/>
        <line class="cls-2" x1="1353.08" y1="116.15" x2="1369.95" y2="101.36"/>
        <rect class="cls-2" x="1362.33" y="112.5" width="15.17" height="8.32"/>
        <g>
          <path class="cls-2" d="m1341.77,132.12v10.51"/>
          <path class="cls-2" d="m1334.9,132.12v10.58"/>
          <path class="cls-2" d="m1348.43,137.44h-20.12"/>
          <rect class="cls-2" x="1327.99" y="131.89" width="20.76" height="11.05"/>
        </g>
        <rect class="cls-2" x="1365.26" y="144.69" width="9.39" height=".97"/>
        <rect class="cls-2" x="1365.26" y="143.72" width="9.39" height=".97"/>
        <rect class="cls-2" x="1365.26" y="142.74" width="9.39" height=".97"/>
        <rect class="cls-2" x="1363.71" y="142.7" width="1.55" height="2.97"/>
        <rect class="cls-2" x="1374.65" y="142.7" width="1.55" height="2.97"/>
      </g>
      <text class="cls-5" transform="translate(1336.22 167.11)"><tspan x="0" y="0">POOL</tspan></text>
    </g>
    <path class="cls-3" d="m1403.41,146.67c-1.76,0-1.76-2-3.52-2s-1.76,2-3.52,2-1.76-2-3.52-2-1.76,2-3.53,2-1.76-2-3.53-2"/>
  </g>
  <g>
    <rect class="cls-4" x="1447.88" y="94.49" width="71.03" height="71.03"/>
    <g>
      <g>
        <path class="cls-2" d="m1512.86,109.16v-5.59c-.06-.53-.22-.76-.75-.74h-2.51c-.6-.02-.94.15-.9.82,0,0,.03,1.73-.02,1.92"/>
        <path class="cls-2" d="m1464.54,123.55s-.79,0-1.11,0c-3.21.01-6.41.01-9.62,0-.45,0-.68,0-.68,0l-3.31,5.57"/>
        <path class="cls-2" d="m1482.13,115.26c-5.72,0-21.68,0-21.68,0v4.16"/>
        <path class="cls-2" d="m1515.59,114.88c-.01,9.57,0,21.21,0,30.78"/>
        <path class="cls-2" d="m1449.31,145.67h67.61"/>
        <path class="cls-2" d="m1499.75,96.84v1.04s18.79,16.23,19.16,16.42"/>
        <path class="cls-2" d="m1483.7,115.44s.14,14.45.14,14.77c0,5.08,0,15.24,0,15.24"/>
        <line class="cls-2" x1="1497.68" y1="112.82" x2="1497.68" y2="120.51"/>
        <path class="cls-2" d="m1499.75,97.88c-.69.49-18.86,15.92-18.86,15.92l1.97,2.34"/>
        <path class="cls-2" d="m1504.45,142.7c0-4.46,0-13.62,0-13.62,0,0-.07-1.3-1.3-1.3,0-4.09-6.9-4.09-6.9,0-1.09,0-1.2,1.2-1.2,1.2v13.72"/>
        <line class="cls-2" x1="1483.7" y1="119.4" x2="1460.44" y2="119.41"/>
        <path class="cls-2" d="m1453.45,129.39v16.05"/>
        <path class="cls-2" d="m1464.54,123.55s13.12,0,19.08,0"/>
        <line class="cls-2" x1="1483.83" y1="129.1" x2="1449.83" y2="129.09"/>
        <line class="cls-2" x1="1464.54" y1="119.4" x2="1464.54" y2="123.55"/>
        <polyline class="cls-2" points="1499.75 101.36 1517.18 116.25 1518.91 114.3"/>
        <line class="cls-2" x1="1482.88" y1="116.15" x2="1499.75" y2="101.36"/>
        <rect class="cls-2" x="1492.13" y="112.5" width="15.17" height="8.32"/>
        <g>
          <path class="cls-2" d="m1471.57,132.12v10.51"/>
          <path class="cls-2" d="m1464.69,132.12v10.58"/>
          <path class="cls-2" d="m1478.23,137.44h-20.12"/>
          <rect class="cls-2" x="1457.79" y="131.89" width="20.76" height="11.05"/>
        </g>
        <rect class="cls-2" x="1495.06" y="144.69" width="9.39" height=".97"/>
        <rect class="cls-2" x="1495.06" y="143.72" width="9.39" height=".97"/>
        <rect class="cls-2" x="1495.06" y="142.74" width="9.39" height=".97"/>
        <rect class="cls-2" x="1493.51" y="142.7" width="1.55" height="2.97"/>
        <rect class="cls-2" x="1504.45" y="142.7" width="1.55" height="2.97"/>
      </g>
      <text class="cls-5" transform="translate(1454.72 167.11)"><tspan x="0" y="0">FENCING</tspan></text>
    </g>
    <g>
      <path class="cls-3" d="m1468.34,141.54v-4.13,8.26-4.13Z"/>
      <path class="cls-3" d="m1473.1,141.54v-4.13,8.26-4.13Z"/>
      <path class="cls-3" d="m1477.86,141.54v-4.13,8.26-4.13Z"/>
      <path class="cls-3" d="m1482.62,141.54v-4.13,8.26-4.13Z"/>
      <path class="cls-3" d="m1487.37,141.54v-4.13,8.26-4.13Z"/>
      <path class="cls-3" d="m1492.13,141.54v-4.13,8.26-4.13Z"/>
      <path class="cls-3" d="m1496.89,141.54v-4.13,8.26-4.13Z"/>
      <path class="cls-3" d="m1501.65,141.54v-4.13,8.26-4.13Z"/>
      <path class="cls-3" d="m1506.41,141.54v-4.13,8.26-4.13Z"/>
      <path class="cls-3" d="m1511.17,141.54v-4.13,8.26-4.13Z"/>
      <path class="cls-3" d="m1515.92,141.54v-4.13,8.26-4.13Z"/>
      <line class="cls-3" x1="1515.92" y1="141.54" x2="1468.34" y2="141.54"/>
    </g>
  </g>
  <rect class="cls-1" x="220.59" y="63.25" width="1357.56" height="133.51"/>
</svg>