<?xml version="1.0" encoding="UTF-8"?>
<svg id="Layer_1" data-name="Layer 1" xmlns="http://www.w3.org/2000/svg" viewBox="0 0 90.78 58.55">
  <defs>
    <style>
      .cls-1 {
        stroke: #fff;
      }

      .cls-1, .cls-2 {
        fill: none;
        stroke-linecap: round;
        stroke-linejoin: round;
      }

      .cls-2 {
        stroke: #de7d6c;
        stroke-width: 4px;
      }
    </style>
  </defs>
  <g>
    <path class="cls-1" d="m74.85,15.79v-5.59c-.06-.53-.22-.76-.75-.74h-2.51c-.6-.02-.94.15-.9.82,0,0,.03,1.73-.02,1.92"/>
    <path class="cls-1" d="m26.54,30.17s-.79,0-1.11,0c-3.21.01-6.41.01-9.62,0-.45,0-.68,0-.68,0l-3.31,5.57"/>
    <path class="cls-1" d="m44.12,21.89c-5.72,0-21.68,0-21.68,0v4.16"/>
    <path class="cls-1" d="m77.59,21.51c-.01,9.57,0,21.21,0,30.78"/>
    <path class="cls-1" d="m11.3,52.29h67.61"/>
    <path class="cls-1" d="m61.75,3.47v1.04s18.79,16.23,19.16,16.42"/>
    <path class="cls-1" d="m45.7,22.06s.14,14.45.14,14.77c0,5.08,0,15.24,0,15.24"/>
    <line class="cls-1" x1="59.68" y1="19.45" x2="59.68" y2="27.14"/>
    <path class="cls-1" d="m61.75,4.5c-.69.49-18.86,15.92-18.86,15.92l1.97,2.34"/>
    <path class="cls-1" d="m66.45,49.32c0-4.46,0-13.62,0-13.62,0,0-.07-1.3-1.3-1.3,0-4.09-6.9-4.09-6.9,0-1.09,0-1.2,1.2-1.2,1.2v13.72"/>
    <line class="cls-1" x1="45.7" y1="26.03" x2="22.44" y2="26.04"/>
    <path class="cls-1" d="m15.44,36.02v16.05"/>
    <path class="cls-1" d="m26.54,30.17s13.12,0,19.08,0"/>
    <line class="cls-1" x1="45.83" y1="35.72" x2="11.83" y2="35.71"/>
    <line class="cls-1" x1="26.54" y1="26.03" x2="26.54" y2="30.17"/>
    <polyline class="cls-1" points="61.75 7.99 79.18 22.88 80.91 20.93"/>
    <line class="cls-1" x1="44.88" y1="22.78" x2="61.75" y2="7.99"/>
    <rect class="cls-1" x="54.13" y="19.13" width="15.17" height="8.32"/>
    <g>
      <path class="cls-1" d="m33.57,38.75v10.51"/>
      <path class="cls-1" d="m26.69,38.75v10.58"/>
      <path class="cls-1" d="m40.23,44.07h-20.12"/>
      <rect class="cls-1" x="19.78" y="38.52" width="20.76" height="11.05"/>
    </g>
    <rect class="cls-1" x="57.05" y="51.32" width="9.39" height=".97"/>
    <rect class="cls-1" x="57.05" y="50.34" width="9.39" height=".97"/>
    <rect class="cls-1" x="57.05" y="49.37" width="9.39" height=".97"/>
    <rect class="cls-1" x="55.51" y="49.32" width="1.55" height="2.97"/>
    <rect class="cls-1" x="66.45" y="49.32" width="1.55" height="2.97"/>
  </g>
  <g>
    <path class="cls-2" d="m30.34,48.16v-4.13,8.26-4.13Z"/>
    <path class="cls-2" d="m35.09,48.16v-4.13,8.26-4.13Z"/>
    <path class="cls-2" d="m39.85,48.16v-4.13,8.26-4.13Z"/>
    <path class="cls-2" d="m44.61,48.16v-4.13,8.26-4.13Z"/>
    <path class="cls-2" d="m49.37,48.16v-4.13,8.26-4.13Z"/>
    <path class="cls-2" d="m54.13,48.16v-4.13,8.26-4.13Z"/>
    <path class="cls-2" d="m58.89,48.16v-4.13,8.26-4.13Z"/>
    <path class="cls-2" d="m63.64,48.16v-4.13,8.26-4.13Z"/>
    <path class="cls-2" d="m68.4,48.16v-4.13,8.26-4.13Z"/>
    <path class="cls-2" d="m73.16,48.16v-4.13,8.26-4.13Z"/>
    <path class="cls-2" d="m77.92,48.16v-4.13,8.26-4.13Z"/>
    <line class="cls-2" x1="77.92" y1="48.16" x2="30.34" y2="48.16"/>
  </g>
</svg>