<?xml version="1.0" encoding="UTF-8"?>
<svg id="Layer_1" data-name="Layer 1" xmlns="http://www.w3.org/2000/svg" viewBox="0 0 88.35 55.57">
  <defs>
    <style>
      .cls-1 {
        stroke: #fff;
      }

      .cls-1, .cls-2 {
        fill: none;
        stroke-linecap: round;
        stroke-linejoin: round;
      }

      .cls-2 {
        stroke: #de7d6c;
        stroke-width: 4px;
      }
    </style>
  </defs>
  <rect class="cls-2" x="67.71" y="41.73" width="15" height="9.98"/>
  <g>
    <path class="cls-1" d="m65.44,14.67v-5.59c-.06-.53-.22-.76-.75-.74h-2.51c-.6-.02-.94.15-.9.82,0,0,.03,1.73-.02,1.92"/>
    <path class="cls-1" d="m17.13,29.06s-.79,0-1.11,0c-3.21.01-6.41.01-9.62,0-.45,0-.68,0-.68,0l-3.31,5.57"/>
    <path class="cls-1" d="m34.71,20.77c-5.72,0-21.68,0-21.68,0v4.16"/>
    <path class="cls-1" d="m68.18,20.4c-.01,9.57,0,21.21,0,30.78"/>
    <path class="cls-1" d="m1.89,51.18h67.61"/>
    <path class="cls-1" d="m52.34,2.35v1.04s18.79,16.23,19.16,16.42"/>
    <path class="cls-1" d="m36.29,20.95s.14,14.45.14,14.77c0,5.08,0,15.24,0,15.24"/>
    <line class="cls-1" x1="50.27" y1="18.33" x2="50.27" y2="26.03"/>
    <path class="cls-1" d="m52.34,3.39c-.69.49-18.86,15.92-18.86,15.92l1.97,2.34"/>
    <path class="cls-1" d="m57.04,48.21c0-4.46,0-13.62,0-13.62,0,0-.07-1.3-1.3-1.3,0-4.09-6.9-4.09-6.9,0-1.09,0-1.2,1.2-1.2,1.2v13.72"/>
    <line class="cls-1" x1="36.29" y1="24.92" x2="13.03" y2="24.92"/>
    <path class="cls-1" d="m6.04,34.9v16.05"/>
    <path class="cls-1" d="m17.13,29.06s13.12,0,19.08,0"/>
    <line class="cls-1" x1="36.42" y1="34.61" x2="2.42" y2="34.6"/>
    <line class="cls-1" x1="17.13" y1="24.92" x2="17.13" y2="29.06"/>
    <polyline class="cls-1" points="52.34 6.87 69.77 21.76 71.5 19.81"/>
    <line class="cls-1" x1="35.47" y1="21.67" x2="52.34" y2="6.87"/>
    <rect class="cls-1" x="44.72" y="18.01" width="15.17" height="8.32"/>
    <g>
      <path class="cls-1" d="m24.16,37.63v10.51"/>
      <path class="cls-1" d="m17.28,37.63v10.58"/>
      <path class="cls-1" d="m30.82,42.96H10.7"/>
      <rect class="cls-1" x="10.37" y="37.41" width="20.76" height="11.05"/>
    </g>
    <rect class="cls-1" x="47.64" y="50.2" width="9.39" height=".97"/>
    <rect class="cls-1" x="47.64" y="49.23" width="9.39" height=".97"/>
    <rect class="cls-1" x="47.64" y="48.25" width="9.39" height=".97"/>
    <rect class="cls-1" x="46.1" y="48.21" width="1.55" height="2.97"/>
    <rect class="cls-1" x="57.04" y="48.21" width="1.55" height="2.97"/>
  </g>
</svg>