<?xml version="1.0" encoding="UTF-8"?>
<svg id="Layer_1" data-name="Layer 1" xmlns="http://www.w3.org/2000/svg" viewBox="0 0 90.78 58.55">
  <defs>
    <style>
      .cls-1 {
        stroke: #fff;
      }

      .cls-1, .cls-2 {
        fill: none;
        stroke-linecap: round;
        stroke-linejoin: round;
      }

      .cls-2 {
        stroke: #de7d6c;
        stroke-width: 4px;
      }
    </style>
  </defs>
  <g>
    <path class="cls-1" d="m66.7,15.44v-5.59c-.06-.53-.22-.76-.75-.74h-2.51c-.6-.02-.94.15-.9.82,0,0,.03,1.73-.02,1.92"/>
    <path class="cls-1" d="m18.39,29.82s-.79,0-1.11,0c-3.21.01-6.41.01-9.62,0-.45,0-.68,0-.68,0l-3.31,5.57"/>
    <path class="cls-1" d="m35.97,21.54c-5.72,0-21.68,0-21.68,0v4.16"/>
    <path class="cls-1" d="m69.43,21.16c-.01,9.57,0,21.21,0,30.78"/>
    <path class="cls-1" d="m3.15,51.94h67.61"/>
    <path class="cls-1" d="m53.6,3.12v1.04s18.79,16.23,19.16,16.42"/>
    <path class="cls-1" d="m37.55,21.71s.14,14.45.14,14.77c0,5.08,0,15.24,0,15.24"/>
    <line class="cls-1" x1="51.53" y1="19.1" x2="51.53" y2="26.79"/>
    <path class="cls-1" d="m53.6,4.15c-.69.49-18.86,15.92-18.86,15.92l1.97,2.34"/>
    <path class="cls-1" d="m58.29,48.97c0-4.46,0-13.62,0-13.62,0,0-.07-1.3-1.3-1.3,0-4.09-6.9-4.09-6.9,0-1.09,0-1.2,1.2-1.2,1.2v13.72"/>
    <line class="cls-1" x1="37.55" y1="25.68" x2="14.29" y2="25.69"/>
    <path class="cls-1" d="m7.29,35.67v16.05"/>
    <path class="cls-1" d="m18.39,29.82s13.12,0,19.08,0"/>
    <line class="cls-1" x1="37.68" y1="35.37" x2="3.67" y2="35.36"/>
    <line class="cls-1" x1="18.39" y1="25.68" x2="18.39" y2="29.82"/>
    <polyline class="cls-1" points="53.6 7.64 71.02 22.53 72.75 20.58"/>
    <line class="cls-1" x1="36.73" y1="22.43" x2="53.6" y2="7.64"/>
    <rect class="cls-1" x="45.98" y="18.78" width="15.17" height="8.32"/>
    <g>
      <path class="cls-1" d="m25.42,38.39v10.51"/>
      <path class="cls-1" d="m18.54,38.39v10.58"/>
      <path class="cls-1" d="m32.07,43.72H11.95"/>
      <rect class="cls-1" x="11.63" y="38.17" width="20.76" height="11.05"/>
    </g>
    <rect class="cls-1" x="48.9" y="50.97" width="9.39" height=".97"/>
    <rect class="cls-1" x="48.9" y="49.99" width="9.39" height=".97"/>
    <rect class="cls-1" x="48.9" y="49.02" width="9.39" height=".97"/>
    <rect class="cls-1" x="47.35" y="48.97" width="1.55" height="2.97"/>
    <rect class="cls-1" x="58.29" y="48.97" width="1.55" height="2.97"/>
  </g>
  <path class="cls-2" d="m87.05,52.94c-1.76,0-1.76-2-3.52-2s-1.76,2-3.52,2-1.76-2-3.52-2-1.76,2-3.53,2-1.76-2-3.53-2"/>
</svg>