<?xml version="1.0" encoding="UTF-8"?>
<svg id="Layer_1" data-name="Layer 1" xmlns="http://www.w3.org/2000/svg" viewBox="0 0 75.06 53.6">
  <defs>
    <style>
      .cls-1 {
        stroke: #fff;
      }

      .cls-1, .cls-2 {
        fill: none;
        stroke-linecap: round;
        stroke-linejoin: round;
      }

      .cls-2 {
        stroke: #de7d6c;
        stroke-width: 4px;
      }
    </style>
  </defs>
  <path class="cls-1" d="m67.18,13.39v-5.59c-.06-.53-.22-.76-.75-.74h-2.51c-.6-.02-.94.15-.9.82,0,0,.03,1.73-.02,1.92"/>
  <path class="cls-1" d="m18.87,27.78s-.79,0-1.11,0c-3.21.01-6.41.01-9.62,0-.45,0-.68,0-.68,0l-3.31,5.57"/>
  <path class="cls-1" d="m36.45,19.49c-5.72,0-21.68,0-21.68,0v4.16"/>
  <path class="cls-1" d="m69.91,19.12c-.01,9.57,0,21.21,0,30.78"/>
  <path class="cls-1" d="m3.63,49.9h67.61"/>
  <path class="cls-1" d="m54.07,1.07v1.04s18.79,16.23,19.16,16.42"/>
  <path class="cls-1" d="m38.02,19.67s.14,14.45.14,14.77c0,5.08,0,15.24,0,15.24"/>
  <line class="cls-1" x1="52" y1="17.05" x2="52" y2="24.75"/>
  <path class="cls-1" d="m54.07,2.11c-.69.49-18.86,15.92-18.86,15.92l1.97,2.34"/>
  <path class="cls-1" d="m58.77,46.93c0-4.46,0-13.62,0-13.62,0,0-.07-1.3-1.3-1.3,0-4.09-6.9-4.09-6.9,0-1.09,0-1.2,1.2-1.2,1.2v13.72"/>
  <line class="cls-1" x1="38.02" y1="23.64" x2="14.77" y2="23.64"/>
  <path class="cls-1" d="m7.77,33.62v16.05"/>
  <path class="cls-1" d="m18.87,27.78s13.12,0,19.08,0"/>
  <line class="cls-1" x1="38.16" y1="33.33" x2="4.15" y2="33.32"/>
  <line class="cls-1" x1="18.87" y1="23.64" x2="18.87" y2="27.78"/>
  <polyline class="cls-1" points="54.07 5.6 71.5 20.48 73.23 18.53"/>
  <line class="cls-1" x1="37.2" y1="20.39" x2="54.07" y2="5.6"/>
  <rect class="cls-1" x="46.45" y="16.73" width="15.17" height="8.32"/>
  <g>
    <path class="cls-2" d="m25.89,36.35v10.51"/>
    <path class="cls-2" d="m19.02,36.35v10.58"/>
    <path class="cls-2" d="m32.55,41.68H12.43"/>
    <rect class="cls-2" x="12.11" y="36.13" width="20.76" height="11.05"/>
  </g>
  <rect class="cls-1" x="49.38" y="48.92" width="9.39" height=".97"/>
  <rect class="cls-1" x="49.38" y="47.95" width="9.39" height=".97"/>
  <rect class="cls-1" x="49.38" y="46.97" width="9.39" height=".97"/>
  <rect class="cls-1" x="47.83" y="46.93" width="1.55" height="2.97"/>
  <rect class="cls-1" x="58.77" y="46.93" width="1.55" height="2.97"/>
</svg>