<?xml version="1.0" encoding="UTF-8"?>
<svg id="Layer_1" data-name="Layer 1" xmlns="http://www.w3.org/2000/svg" viewBox="0 0 1080 242.11">
  <defs>
    <style>
      .cls-1 {
        fill: #fff;
      }
    </style>
  </defs>
  <path class="cls-1" d="m162.99,23.15L37.08,216.29h43.26l31.71-49.98h72.07v49.98h40.39V23.15h-61.53Zm21.14,32.66v76.86h-49.95c3.85-4.79,49.95-76.86,49.95-76.86Zm841.93,128.77c-8.64-.39-15.96,6.3-16.35,14.93-.02.47-.02.94,0,1.41,0,8.65,6.76,15.37,16.35,15.37s16.35-6.72,16.35-15.37c.41-8.62-6.24-15.94-14.86-16.35-.5-.02-.99-.02-1.49,0Zm0,1.93c7.7,0,14.42,4.83,14.42,14.42,0,8.65-6.72,13.44-14.42,13.44s-13.44-4.79-13.44-13.44c0-9.59,5.78-14.42,13.44-14.42Z"/>
  <path class="cls-1" d="m1020.28,191.33v17.29h2.91v-6.76h1.89l5.81,6.72h2.87l-4.83-7.7c1.93,0,3.85-1.93,3.85-4.79s-2.87-4.79-6.72-4.79l-5.78.04Zm2.91,2.87h2.91c1.89,0,2.83.94,2.83,1.93,0,1.93-.94,2.87-2.87,2.87h-2.91l.04-4.79Z"/>
  <path class="cls-1" d="m321.58,216.29h40.36V23.15h-40.36v193.14Zm-71.12,0h41.34V23.15h-41.34v193.14Z"/>
  <path class="cls-1" d="m916.5,66.37c-18.27,0-33.64,5.78-45.19,16.35-14.42,13.44-21.14,33.64-21.14,58.59,0,46.13,26.92,74.97,72.07,74.97,20.4.19,40.42-5.48,57.68-16.35l.94-.94-4.79-29.79-1.93.94c-17.29,11.55-31.71,16.35-48.06,16.35-21.14,0-34.58-13.44-36.51-36.51h91.28l.98-9.63c0-49.04-22.12-73.99-64.4-73.99h-.94Zm0,26.88c20.16,0,25.94,17.33,25.94,32.69h-52.85c1.93-21.14,11.55-32.69,26.88-32.69h.04Z"/>
  <path class="cls-1" d="m770.4,23.15v46.13h-20.2v30.73h20.2v73.01c0,28.84,15.37,43.26,49.04,43.26,10.53,0,17.29-1.93,23.03-2.91h1.93l-5.74-31.67h-1.93c-2.91.94-5.81.94-10.57.94-11.55,0-17.33-4.79-17.33-15.37v-67.27h28.84l.98-30.77h-29.79V23.15h-38.47Z"/>
  <path class="cls-1" d="m680.07,66.37c-24.01,0-43.23,5.78-57.65,10.53l-.98.98,4.79,30.77,1.93-.98c17.33-7.66,32.69-11.51,47.08-11.51,15.4,0,23.1,6.72,23.1,19.25v3.81c-58.63,5.78-86.53,24.05-86.53,57.68,0,24.01,16.35,39.38,42.32,39.38,18.23,0,32.69-5.74,47.08-18.23l2.91,15.37h33.64v-98.98c0-32.69-18.27-48.06-57.68-48.06h0Zm18.27,75.92v31.71c-9.63,8.65-20.2,13.44-31.71,13.44-9.63,0-15.4-5.74-15.4-14.38,0-16.35,16.35-26.92,47.11-30.77h0Z"/>
  <path class="cls-1" d="m527.25,23.15v46.13h-20.2v30.73h20.2v73.01c0,28.84,16.35,43.26,49.04,43.26,10.53,0,17.29-.94,23.03-2.91h1.93l-4.79-31.67h-1.93c-2.91.94-6.72.94-11.51.94-11.55,0-17.33-4.79-17.33-15.37v-67.27h29.79v-30.77h-29.79V23.15h-38.43Zm-130.7,57.65c-7.66,7.6-11.84,18.02-11.55,28.81.98,28.84,15.4,37.49,50.96,46.13,23.07,4.83,27.86,8.68,27.86,19.25,0,8.65-5.78,12.5-22.12,12.5s-35.56-5.81-50.93-15.4l-2.91-1.93-5.74,31.71,1.93.98c12.5,6.72,33.64,13.44,56.67,13.44s38.5-4.79,48.09-14.38c7.66-7.7,11.51-18.27,11.51-30.77,0-30.77-17.29-38.43-52.85-47.11-22.12-5.74-25.94-8.65-25.94-17.29.94-6.72,7.66-11.51,18.23-11.51,13.44,0,30.77,4.79,45.19,12.5l1.93.94,5.78-31.71-1.93-.98c-16.23-6.4-33.52-9.66-50.96-9.59-18.23,0-33.64,5.78-43.23,14.42"/>
</svg>