<?xml version="1.0" encoding="UTF-8"?>
<svg id="Layer_1" data-name="Layer 1" xmlns="http://www.w3.org/2000/svg" viewBox="0 0 88.35 58.55">
  <defs>
    <style>
      .cls-1 {
        stroke: #fff;
      }

      .cls-1, .cls-2 {
        fill: none;
        stroke-linecap: round;
        stroke-linejoin: round;
      }

      .cls-2 {
        stroke: #de7d6c;
        stroke-width: 4px;
      }
    </style>
  </defs>
  <polygon class="cls-2" points="65.32 51.9 80.32 51.9 80.32 41.92 72.82 36.88 65.32 41.92 65.32 51.9"/>
  <g>
    <path class="cls-1" d="m70.1,15.39v-5.59c-.06-.53-.22-.76-.75-.74h-2.51c-.6-.02-.94.15-.9.82,0,0,.03,1.73-.02,1.92"/>
    <path class="cls-1" d="m21.78,29.78s-.79,0-1.11,0c-3.21.01-6.41.01-9.62,0-.45,0-.68,0-.68,0l-3.31,5.57"/>
    <path class="cls-1" d="m39.37,21.49c-5.72,0-21.68,0-21.68,0v4.16"/>
    <path class="cls-1" d="m72.83,21.12c-.01,9.57,0,21.21,0,30.78"/>
    <path class="cls-1" d="m6.55,51.9h67.61"/>
    <path class="cls-1" d="m56.99,3.07v1.04s18.79,16.23,19.16,16.42"/>
    <path class="cls-1" d="m40.94,21.67s.14,14.45.14,14.77c0,5.08,0,15.24,0,15.24"/>
    <line class="cls-1" x1="54.92" y1="19.05" x2="54.92" y2="26.75"/>
    <path class="cls-1" d="m56.99,4.11c-.69.49-18.86,15.92-18.86,15.92l1.97,2.34"/>
    <path class="cls-1" d="m61.69,48.93c0-4.46,0-13.62,0-13.62,0,0-.07-1.3-1.3-1.3,0-4.09-6.9-4.09-6.9,0-1.09,0-1.2,1.2-1.2,1.2v13.72"/>
    <line class="cls-1" x1="40.94" y1="25.64" x2="17.68" y2="25.64"/>
    <path class="cls-1" d="m10.69,35.62v16.05"/>
    <path class="cls-1" d="m21.78,29.78s13.12,0,19.08,0"/>
    <line class="cls-1" x1="41.07" y1="35.33" x2="7.07" y2="35.32"/>
    <line class="cls-1" x1="21.78" y1="25.64" x2="21.78" y2="29.78"/>
    <polyline class="cls-1" points="56.99 7.6 74.42 22.48 76.15 20.53"/>
    <line class="cls-1" x1="40.12" y1="22.39" x2="56.99" y2="7.6"/>
    <rect class="cls-1" x="49.37" y="18.73" width="15.17" height="8.32"/>
    <g>
      <path class="cls-1" d="m28.81,38.35v10.51"/>
      <path class="cls-1" d="m21.93,38.35v10.58"/>
      <path class="cls-1" d="m35.47,43.68H15.35"/>
      <rect class="cls-1" x="15.03" y="38.13" width="20.76" height="11.05"/>
    </g>
    <rect class="cls-1" x="52.3" y="50.92" width="9.39" height=".97"/>
    <rect class="cls-1" x="52.3" y="49.95" width="9.39" height=".97"/>
    <rect class="cls-1" x="52.3" y="48.97" width="9.39" height=".97"/>
    <rect class="cls-1" x="50.75" y="48.93" width="1.55" height="2.97"/>
    <rect class="cls-1" x="61.69" y="48.93" width="1.55" height="2.97"/>
  </g>
</svg>