<?xml version="1.0" encoding="UTF-8"?>
<svg id="Layer_1" data-name="Layer 1" xmlns="http://www.w3.org/2000/svg" viewBox="0 0 72.64 53.34">
  <defs>
    <style>
      .cls-1 {
        fill: none;
        stroke: #fff;
        stroke-linecap: round;
        stroke-linejoin: round;
      }
    </style>
  </defs>
  <path class="cls-1" d="m64.64,14.31v-5.59c-.06-.53-.22-.76-.75-.74h-2.51c-.6-.02-.94.15-.9.82,0,0,.03,1.73-.02,1.92"/>
  <path class="cls-1" d="m16.33,28.7s-.79,0-1.11,0c-3.21.01-6.41.01-9.62,0-.45,0-.68,0-.68,0l-3.31,5.57"/>
  <path class="cls-1" d="m33.91,20.41c-5.72,0-21.68,0-21.68,0v4.16"/>
  <path class="cls-1" d="m67.37,20.03c-.01,9.57,0,21.21,0,30.78"/>
  <path class="cls-1" d="m1.09,50.82h67.61"/>
  <path class="cls-1" d="m51.54,1.99v1.04s18.79,16.23,19.16,16.42"/>
  <path class="cls-1" d="m35.49,20.59s.14,14.45.14,14.77c0,5.08,0,15.24,0,15.24"/>
  <line class="cls-1" x1="49.47" y1="17.97" x2="49.47" y2="25.66"/>
  <path class="cls-1" d="m51.54,3.03c-.69.49-18.86,15.92-18.86,15.92l1.97,2.34"/>
  <path class="cls-1" d="m56.23,47.85c0-4.46,0-13.62,0-13.62,0,0-.07-1.3-1.3-1.3,0-4.09-6.9-4.09-6.9,0-1.09,0-1.2,1.2-1.2,1.2v13.72"/>
  <line class="cls-1" x1="35.49" y1="24.55" x2="12.23" y2="24.56"/>
  <path class="cls-1" d="m5.23,34.54v16.05"/>
  <path class="cls-1" d="m16.33,28.7s13.12,0,19.08,0"/>
  <line class="cls-1" x1="35.62" y1="34.25" x2="1.61" y2="34.24"/>
  <line class="cls-1" x1="16.33" y1="24.55" x2="16.33" y2="28.7"/>
  <polyline class="cls-1" points="51.54 6.51 68.96 21.4 70.69 19.45"/>
  <line class="cls-1" x1="34.67" y1="21.3" x2="51.54" y2="6.51"/>
  <rect class="cls-1" x="43.92" y="17.65" width="15.17" height="8.32"/>
  <g>
    <path class="cls-1" d="m23.36,37.27v10.51"/>
    <path class="cls-1" d="m16.48,37.27v10.58"/>
    <path class="cls-1" d="m30.01,42.59H9.89"/>
    <rect class="cls-1" x="9.57" y="37.04" width="20.76" height="11.05"/>
  </g>
  <rect class="cls-1" x="46.84" y="49.84" width="9.39" height=".97"/>
  <rect class="cls-1" x="46.84" y="48.87" width="9.39" height=".97"/>
  <rect class="cls-1" x="46.84" y="47.89" width="9.39" height=".97"/>
  <rect class="cls-1" x="45.29" y="47.85" width="1.55" height="2.97"/>
  <rect class="cls-1" x="56.23" y="47.85" width="1.55" height="2.97"/>
</svg>