<?xml version="1.0" encoding="UTF-8"?>
<svg id="Layer_1" data-name="Layer 1" xmlns="http://www.w3.org/2000/svg" viewBox="0 0 1580.5 320.52">
  <defs>
    <style>
      .cls-1 {
        stroke-miterlimit: 10;
      }

      .cls-1, .cls-2 {
        stroke: #fff;
      }

      .cls-1, .cls-2, .cls-3, .cls-4 {
        fill: none;
      }

      .cls-2, .cls-3 {
        stroke-linecap: round;
        stroke-linejoin: round;
      }

      .cls-3 {
        stroke: #de7d6c;
        stroke-width: 4px;
      }

      .cls-5 {
        fill: #fff;
        font-family: Poppins-Bold, Poppins;
        font-size: 13px;
        font-weight: 700;
      }
    </style>
  </defs>
  <g>
    <line class="cls-3" x1="38.02" y1="61.4" x2="38.02" y2="65.54"/>
    <path class="cls-2" d="m86.33,51.16v-5.59c-.06-.53-.22-.76-.75-.74h-2.51c-.6-.02-.94.15-.9.82,0,0,.03,1.73-.02,1.92"/>
    <path class="cls-2" d="m38.02,65.54s-.79,0-1.11,0c-3.21.01-6.41.01-9.62,0-.45,0-.68,0-.68,0l-3.31,5.57"/>
    <path class="cls-2" d="m55.61,57.26c-5.72,0-21.68,0-21.68,0v4.16"/>
    <path class="cls-2" d="m89.07,56.88c-.01,9.57,0,21.21,0,30.78"/>
    <path class="cls-2" d="m22.79,87.66h67.61"/>
    <path class="cls-2" d="m73.23,38.83v1.04s18.79,16.23,19.16,16.42"/>
    <path class="cls-2" d="m57.18,57.43s.14,14.45.14,14.77c0,5.08,0,15.24,0,15.24"/>
    <line class="cls-2" x1="71.16" y1="54.81" x2="71.16" y2="62.51"/>
    <path class="cls-2" d="m73.23,39.87c-.69.49-18.86,15.92-18.86,15.92l1.97,2.34"/>
    <path class="cls-2" d="m77.93,84.69c0-4.46,0-13.62,0-13.62,0,0-.07-1.3-1.3-1.3,0-4.09-6.9-4.09-6.9,0-1.09,0-1.2,1.2-1.2,1.2v13.72"/>
    <line class="cls-2" x1="57.18" y1="61.4" x2="33.92" y2="61.4"/>
    <path class="cls-2" d="m26.93,71.39v16.05"/>
    <path class="cls-2" d="m38.02,65.54s13.12,0,19.08,0"/>
    <line class="cls-2" x1="57.31" y1="71.09" x2="23.31" y2="71.08"/>
    <polyline class="cls-2" points="73.23 43.36 90.66 58.24 92.39 56.29"/>
    <line class="cls-2" x1="56.36" y1="58.15" x2="73.23" y2="43.36"/>
    <rect class="cls-2" x="65.61" y="54.5" width="15.17" height="8.32"/>
    <g>
      <path class="cls-2" d="m45.05,74.11v10.51"/>
      <path class="cls-2" d="m38.17,74.11v10.58"/>
      <path class="cls-2" d="m51.71,79.44h-20.12"/>
      <rect class="cls-2" x="31.27" y="73.89" width="20.76" height="11.05"/>
    </g>
    <rect class="cls-2" x="68.53" y="86.69" width="9.39" height=".97"/>
    <rect class="cls-2" x="68.53" y="85.71" width="9.39" height=".97"/>
    <rect class="cls-2" x="68.53" y="84.74" width="9.39" height=".97"/>
    <rect class="cls-2" x="66.99" y="84.69" width="1.55" height="2.97"/>
    <rect class="cls-2" x="77.93" y="84.69" width="1.55" height="2.97"/>
  </g>
  <text class="cls-5" transform="translate(542.9 167.11)"><tspan x="0" y="0">PLUMBING</tspan></text>
  <g>
    <rect class="cls-3" x="1128.04" y="135.69" width="15" height="9.98"/>
    <rect class="cls-4" x="1060.33" y="94.49" width="71.03" height="71.03"/>
  </g>
  <g>
    <path class="cls-2" d="m195.22,34.53v-5.59c-.06-.53-.22-.76-.75-.74h-2.51c-.6-.02-.94.15-.9.82,0,0,.03,1.73-.02,1.92"/>
    <path class="cls-2" d="m146.91,48.91s-.79,0-1.11,0c-3.21.01-6.41.01-9.62,0-.45,0-.68,0-.68,0l-3.31,5.57"/>
    <path class="cls-2" d="m164.49,40.63c-5.72,0-21.68,0-21.68,0v4.16"/>
    <path class="cls-2" d="m197.95,40.25c-.01,9.57,0,21.21,0,30.78"/>
    <path class="cls-2" d="m131.67,71.03h67.61"/>
    <path class="cls-3" d="m182.11,22.21v1.04s18.79,16.23,19.16,16.42"/>
    <path class="cls-2" d="m166.06,40.8s.14,14.45.14,14.77c0,5.08,0,15.24,0,15.24"/>
    <line class="cls-2" x1="180.04" y1="38.19" x2="180.04" y2="45.88"/>
    <path class="cls-3" d="m182.11,23.24c-.69.49-18.86,15.92-18.86,15.92l1.97,2.34"/>
    <path class="cls-2" d="m186.81,68.06c0-4.46,0-13.62,0-13.62,0,0-.07-1.3-1.3-1.3,0-4.09-6.9-4.09-6.9,0-1.09,0-1.2,1.2-1.2,1.2v13.72"/>
    <line class="cls-2" x1="166.06" y1="44.77" x2="142.81" y2="44.78"/>
    <path class="cls-2" d="m135.81,54.76v16.05"/>
    <path class="cls-2" d="m146.91,48.91s13.12,0,19.08,0"/>
    <line class="cls-2" x1="166.2" y1="54.46" x2="132.19" y2="54.45"/>
    <line class="cls-2" x1="146.91" y1="44.77" x2="146.91" y2="48.91"/>
    <polyline class="cls-2" points="182.11 26.73 199.54 41.62 201.27 39.67"/>
    <line class="cls-2" x1="165.25" y1="41.52" x2="182.11" y2="26.73"/>
    <rect class="cls-2" x="174.49" y="37.87" width="15.17" height="8.32"/>
    <g>
      <path class="cls-2" d="m153.93,57.48v10.51"/>
      <path class="cls-2" d="m147.06,57.48v10.58"/>
      <path class="cls-2" d="m160.59,62.81h-20.12"/>
      <rect class="cls-2" x="140.15" y="57.26" width="20.76" height="11.05"/>
    </g>
    <rect class="cls-2" x="177.42" y="70.06" width="9.39" height=".97"/>
    <rect class="cls-2" x="177.42" y="69.08" width="9.39" height=".97"/>
    <rect class="cls-2" x="177.42" y="68.11" width="9.39" height=".97"/>
    <rect class="cls-2" x="175.87" y="68.06" width="1.55" height="2.97"/>
    <rect class="cls-2" x="186.81" y="68.06" width="1.55" height="2.97"/>
  </g>
  <text class="cls-5" transform="translate(334.26 312.64)"><tspan x="0" y="0">ROOF</tspan></text>
  <text class="cls-5" transform="translate(297.85 166.58)"><tspan x="0" y="0">HOME</tspan></text>
  <rect class="cls-4" x="670.93" y="94.49" width="71.03" height="71.03"/>
  <g>
    <path class="cls-3" d="m34.89,155.58s.14,14.45.14,14.77c0,5.08,0,15.24,0,15.24"/>
    <polyline class="cls-3" points="50.95 141.5 68.37 156.39 70.1 154.44"/>
    <line class="cls-3" x1="34.08" y1="156.29" x2="50.95" y2="141.5"/>
    <path class="cls-2" d="m64.05,149.3v-5.59c-.06-.53-.22-.76-.75-.74h-2.51c-.6-.02-.94.15-.9.82,0,0,.03,1.73-.02,1.92"/>
    <path class="cls-2" d="m15.74,163.69s-.79,0-1.11,0c-3.21.01-6.41.01-9.62,0-.45,0-.68,0-.68,0l-3.31,5.57"/>
    <path class="cls-2" d="m33.32,155.4c-5.72,0-21.68,0-21.68,0v4.16"/>
    <path class="cls-2" d="m66.78,155.02c-.01,9.57,0,21.21,0,30.78"/>
    <path class="cls-2" d="m.5,185.81h67.61"/>
    <path class="cls-2" d="m50.95,136.98v1.04s18.79,16.23,19.16,16.42"/>
    <line class="cls-2" x1="48.87" y1="152.96" x2="48.87" y2="160.65"/>
    <path class="cls-2" d="m50.95,138.02c-.69.49-18.86,15.92-18.86,15.92l1.97,2.34"/>
    <path class="cls-2" d="m55.64,182.84c0-4.46,0-13.62,0-13.62,0,0-.07-1.3-1.3-1.3,0-4.09-6.9-4.09-6.9,0-1.09,0-1.2,1.2-1.2,1.2v13.72"/>
    <line class="cls-2" x1="34.89" y1="159.54" x2="11.64" y2="159.55"/>
    <path class="cls-2" d="m4.64,169.53v16.05"/>
    <path class="cls-2" d="m15.74,163.69s13.12,0,19.08,0"/>
    <line class="cls-2" x1="35.03" y1="169.23" x2="1.02" y2="169.23"/>
    <line class="cls-2" x1="15.74" y1="159.54" x2="15.74" y2="163.69"/>
    <rect class="cls-2" x="43.32" y="152.64" width="15.17" height="8.32"/>
    <g>
      <path class="cls-2" d="m22.77,172.26v10.51"/>
      <path class="cls-2" d="m15.89,172.26v10.58"/>
      <path class="cls-2" d="m29.42,177.58H9.3"/>
      <rect class="cls-2" x="8.98" y="172.03" width="20.76" height="11.05"/>
    </g>
    <rect class="cls-2" x="46.25" y="184.83" width="9.39" height=".97"/>
    <rect class="cls-2" x="46.25" y="183.86" width="9.39" height=".97"/>
    <rect class="cls-2" x="46.25" y="182.88" width="9.39" height=".97"/>
    <rect class="cls-2" x="44.7" y="182.84" width="1.55" height="2.97"/>
    <rect class="cls-2" x="55.64" y="182.84" width="1.55" height="2.97"/>
  </g>
  <text class="cls-5" transform="translate(683.78 68.39)"><tspan x="0" y="0">INSULATION</tspan></text>
  <g>
    <rect class="cls-4" x="800.73" y="94.49" width="71.03" height="71.03"/>
    <g>
      <g>
        <path class="cls-3" d="m857.31,142.7c0-4.46,0-13.62,0-13.62,0,0-.07-1.3-1.3-1.3,0-4.09-6.9-4.09-6.9,0-1.09,0-1.2,1.2-1.2,1.2v13.72"/>
        <path class="cls-2" d="m865.71,109.16v-5.59c-.06-.53-.22-.76-.75-.74h-2.51c-.6-.02-.94.15-.9.82,0,0,.03,1.73-.02,1.92"/>
        <path class="cls-2" d="m817.4,123.55s-.79,0-1.11,0c-3.21.01-6.41.01-9.62,0-.45,0-.68,0-.68,0l-3.31,5.57"/>
        <path class="cls-2" d="m834.98,115.26c-5.72,0-21.68,0-21.68,0v4.16"/>
        <path class="cls-2" d="m868.45,114.88c-.01,9.57,0,21.21,0,30.78"/>
        <path class="cls-2" d="m802.16,145.67h67.61"/>
        <path class="cls-2" d="m852.61,96.84v1.04s18.79,16.23,19.16,16.42"/>
        <path class="cls-2" d="m836.56,115.44s.14,14.45.14,14.77c0,5.08,0,15.24,0,15.24"/>
        <line class="cls-2" x1="850.54" y1="112.82" x2="850.54" y2="120.51"/>
        <path class="cls-2" d="m852.61,97.88c-.69.49-18.86,15.92-18.86,15.92l1.97,2.34"/>
        <line class="cls-2" x1="836.56" y1="119.4" x2="813.3" y2="119.41"/>
        <path class="cls-2" d="m806.3,129.39v16.05"/>
        <path class="cls-2" d="m817.4,123.55s13.12,0,19.08,0"/>
        <line class="cls-2" x1="836.69" y1="129.1" x2="802.69" y2="129.09"/>
        <line class="cls-2" x1="817.4" y1="119.4" x2="817.4" y2="123.55"/>
        <polyline class="cls-2" points="852.61 101.36 870.03 116.25 871.77 114.3"/>
        <line class="cls-2" x1="835.74" y1="116.15" x2="852.61" y2="101.36"/>
        <rect class="cls-2" x="844.99" y="112.5" width="15.17" height="8.32"/>
        <g>
          <path class="cls-2" d="m824.43,132.12v10.51"/>
          <path class="cls-2" d="m817.55,132.12v10.58"/>
          <path class="cls-2" d="m831.08,137.44h-20.12"/>
          <rect class="cls-2" x="810.64" y="131.89" width="20.76" height="11.05"/>
        </g>
        <rect class="cls-2" x="847.91" y="144.69" width="9.39" height=".97"/>
        <rect class="cls-2" x="847.91" y="143.72" width="9.39" height=".97"/>
        <rect class="cls-2" x="847.91" y="142.74" width="9.39" height=".97"/>
        <rect class="cls-2" x="846.37" y="142.7" width="1.55" height="2.97"/>
        <rect class="cls-2" x="857.31" y="142.7" width="1.55" height="2.97"/>
      </g>
      <text class="cls-5" transform="translate(813.07 167.11)"><tspan x="0" y="0">DOORS</tspan></text>
    </g>
  </g>
  <g>
    <rect class="cls-4" x="930.53" y="94.49" width="71.03" height="71.03"/>
    <g>
      <g>
        <path class="cls-2" d="m995.51,109.16v-5.59c-.06-.53-.22-.76-.75-.74h-2.51c-.6-.02-.94.15-.9.82,0,0,.03,1.73-.02,1.92"/>
        <path class="cls-2" d="m947.2,123.55s-.79,0-1.11,0c-3.21.01-6.41.01-9.62,0-.45,0-.68,0-.68,0l-3.31,5.57"/>
        <path class="cls-2" d="m964.78,115.26c-5.72,0-21.68,0-21.68,0v4.16"/>
        <path class="cls-2" d="m998.24,114.88c-.01,9.57,0,21.21,0,30.78"/>
        <path class="cls-2" d="m931.96,145.67h67.61"/>
        <path class="cls-2" d="m982.41,96.84v1.04s18.79,16.23,19.16,16.42"/>
        <path class="cls-2" d="m966.36,115.44s.14,14.45.14,14.77c0,5.08,0,15.24,0,15.24"/>
        <line class="cls-2" x1="980.34" y1="112.82" x2="980.34" y2="120.51"/>
        <path class="cls-2" d="m982.41,97.88c-.69.49-18.86,15.92-18.86,15.92l1.97,2.34"/>
        <path class="cls-2" d="m987.1,142.7c0-4.46,0-13.62,0-13.62,0,0-.07-1.3-1.3-1.3,0-4.09-6.9-4.09-6.9,0-1.09,0-1.2,1.2-1.2,1.2v13.72"/>
        <line class="cls-2" x1="966.36" y1="119.4" x2="943.1" y2="119.41"/>
        <path class="cls-2" d="m936.1,129.39v16.05"/>
        <path class="cls-2" d="m947.2,123.55s13.12,0,19.08,0"/>
        <line class="cls-2" x1="966.49" y1="129.1" x2="932.48" y2="129.09"/>
        <line class="cls-2" x1="947.2" y1="119.4" x2="947.2" y2="123.55"/>
        <polyline class="cls-2" points="982.41 101.36 999.83 116.25 1001.56 114.3"/>
        <line class="cls-2" x1="965.54" y1="116.15" x2="982.41" y2="101.36"/>
        <rect class="cls-2" x="974.79" y="112.5" width="15.17" height="8.32"/>
        <g>
          <path class="cls-3" d="m954.23,132.12v10.51"/>
          <path class="cls-3" d="m947.35,132.12v10.58"/>
          <path class="cls-3" d="m960.88,137.44h-20.12"/>
          <rect class="cls-3" x="940.44" y="131.89" width="20.76" height="11.05"/>
        </g>
        <rect class="cls-2" x="977.71" y="144.69" width="9.39" height=".97"/>
        <rect class="cls-2" x="977.71" y="143.72" width="9.39" height=".97"/>
        <rect class="cls-2" x="977.71" y="142.74" width="9.39" height=".97"/>
        <rect class="cls-2" x="976.16" y="142.7" width="1.55" height="2.97"/>
        <rect class="cls-2" x="987.1" y="142.7" width="1.55" height="2.97"/>
      </g>
      <text class="cls-5" transform="translate(931.73 167.11)"><tspan x="0" y="0">WINDOWS</tspan></text>
    </g>
  </g>
  <g>
    <g>
      <path class="cls-2" d="m1125.77,108.63v-5.59c-.06-.53-.22-.76-.75-.74h-2.51c-.6-.02-.94.15-.9.82,0,0,.03,1.73-.02,1.92"/>
      <path class="cls-2" d="m1077.46,123.02s-.79,0-1.11,0c-3.21.01-6.41.01-9.62,0-.45,0-.68,0-.68,0l-3.31,5.57"/>
      <path class="cls-2" d="m1095.04,114.73c-5.72,0-21.68,0-21.68,0v4.16"/>
      <path class="cls-2" d="m1128.51,114.35c-.01,9.57,0,21.21,0,30.78"/>
      <path class="cls-2" d="m1062.22,145.14h67.61"/>
      <path class="cls-2" d="m1112.67,96.31v1.04s18.79,16.23,19.16,16.42"/>
      <path class="cls-2" d="m1096.62,114.91s.14,14.45.14,14.77c0,5.08,0,15.24,0,15.24"/>
      <line class="cls-2" x1="1110.6" y1="112.29" x2="1110.6" y2="119.98"/>
      <path class="cls-2" d="m1112.67,97.35c-.69.49-18.86,15.92-18.86,15.92l1.97,2.34"/>
      <path class="cls-2" d="m1117.37,142.17c0-4.46,0-13.62,0-13.62,0,0-.07-1.3-1.3-1.3,0-4.09-6.9-4.09-6.9,0-1.09,0-1.2,1.2-1.2,1.2v13.72"/>
      <line class="cls-2" x1="1096.62" y1="118.87" x2="1073.36" y2="118.88"/>
      <path class="cls-2" d="m1066.36,128.86v16.05"/>
      <path class="cls-2" d="m1077.46,123.02s13.12,0,19.08,0"/>
      <line class="cls-2" x1="1096.75" y1="128.56" x2="1062.75" y2="128.56"/>
      <line class="cls-2" x1="1077.46" y1="118.87" x2="1077.46" y2="123.02"/>
      <polyline class="cls-2" points="1112.67 100.83 1130.09 115.72 1131.83 113.77"/>
      <line class="cls-2" x1="1095.8" y1="115.62" x2="1112.67" y2="100.83"/>
      <rect class="cls-2" x="1105.05" y="111.97" width="15.17" height="8.32"/>
      <g>
        <path class="cls-2" d="m1084.49,131.59v10.51"/>
        <path class="cls-2" d="m1077.61,131.59v10.58"/>
        <path class="cls-2" d="m1091.14,136.91h-20.12"/>
        <rect class="cls-2" x="1070.7" y="131.36" width="20.76" height="11.05"/>
      </g>
      <rect class="cls-2" x="1107.97" y="144.16" width="9.39" height=".97"/>
      <rect class="cls-2" x="1107.97" y="143.19" width="9.39" height=".97"/>
      <rect class="cls-2" x="1107.97" y="142.21" width="9.39" height=".97"/>
      <rect class="cls-2" x="1106.43" y="142.17" width="1.55" height="2.97"/>
      <rect class="cls-2" x="1117.37" y="142.17" width="1.55" height="2.97"/>
    </g>
    <text class="cls-5" transform="translate(1069.07 166.58)"><tspan x="0" y="0">GARAGE</tspan></text>
  </g>
  <g>
    <polygon class="cls-3" points="1250.33 145.67 1265.33 145.67 1265.33 135.69 1257.83 130.65 1250.33 135.69 1250.33 145.67"/>
    <rect class="cls-4" x="1190.13" y="94.49" width="71.03" height="71.03"/>
    <g>
      <g>
        <path class="cls-2" d="m1255.11,109.16v-5.59c-.06-.53-.22-.76-.75-.74h-2.51c-.6-.02-.94.15-.9.82,0,0,.03,1.73-.02,1.92"/>
        <path class="cls-2" d="m1206.8,123.55s-.79,0-1.11,0c-3.21.01-6.41.01-9.62,0-.45,0-.68,0-.68,0l-3.31,5.57"/>
        <path class="cls-2" d="m1224.38,115.26c-5.72,0-21.68,0-21.68,0v4.16"/>
        <path class="cls-2" d="m1257.84,114.88c-.01,9.57,0,21.21,0,30.78"/>
        <path class="cls-2" d="m1191.56,145.67h67.61"/>
        <path class="cls-2" d="m1242,96.84v1.04s18.79,16.23,19.16,16.42"/>
        <path class="cls-2" d="m1225.95,115.44s.14,14.45.14,14.77c0,5.08,0,15.24,0,15.24"/>
        <line class="cls-2" x1="1239.93" y1="112.82" x2="1239.93" y2="120.51"/>
        <path class="cls-2" d="m1242,97.88c-.69.49-18.86,15.92-18.86,15.92l1.97,2.34"/>
        <path class="cls-2" d="m1246.7,142.7c0-4.46,0-13.62,0-13.62,0,0-.07-1.3-1.3-1.3,0-4.09-6.9-4.09-6.9,0-1.09,0-1.2,1.2-1.2,1.2v13.72"/>
        <line class="cls-2" x1="1225.95" y1="119.4" x2="1202.69" y2="119.41"/>
        <path class="cls-2" d="m1195.7,129.39v16.05"/>
        <path class="cls-2" d="m1206.8,123.55s13.12,0,19.08,0"/>
        <line class="cls-2" x1="1226.08" y1="129.1" x2="1192.08" y2="129.09"/>
        <line class="cls-2" x1="1206.8" y1="119.4" x2="1206.8" y2="123.55"/>
        <polyline class="cls-2" points="1242 101.36 1259.43 116.25 1261.16 114.3"/>
        <line class="cls-2" x1="1225.13" y1="116.15" x2="1242" y2="101.36"/>
        <rect class="cls-2" x="1234.38" y="112.5" width="15.17" height="8.32"/>
        <g>
          <path class="cls-2" d="m1213.82,132.12v10.51"/>
          <path class="cls-2" d="m1206.94,132.12v10.58"/>
          <path class="cls-2" d="m1220.48,137.44h-20.12"/>
          <rect class="cls-2" x="1200.04" y="131.89" width="20.76" height="11.05"/>
        </g>
        <rect class="cls-2" x="1237.31" y="144.69" width="9.39" height=".97"/>
        <rect class="cls-2" x="1237.31" y="143.72" width="9.39" height=".97"/>
        <rect class="cls-2" x="1237.31" y="142.74" width="9.39" height=".97"/>
        <rect class="cls-2" x="1235.76" y="142.7" width="1.55" height="2.97"/>
        <rect class="cls-2" x="1246.7" y="142.7" width="1.55" height="2.97"/>
      </g>
      <text class="cls-5" transform="translate(1199.12 167.11)"><tspan x="0" y="0">GAZEBO</tspan></text>
    </g>
  </g>
  <g>
    <rect class="cls-4" x="1319.93" y="94.49" width="71.03" height="71.03"/>
    <g>
      <g>
        <path class="cls-2" d="m1384.9,109.16v-5.59c-.06-.53-.22-.76-.75-.74h-2.51c-.6-.02-.94.15-.9.82,0,0,.03,1.73-.02,1.92"/>
        <path class="cls-2" d="m1336.59,123.55s-.79,0-1.11,0c-3.21.01-6.41.01-9.62,0-.45,0-.68,0-.68,0l-3.31,5.57"/>
        <path class="cls-2" d="m1354.18,115.26c-5.72,0-21.68,0-21.68,0v4.16"/>
        <path class="cls-2" d="m1387.64,114.88c-.01,9.57,0,21.21,0,30.78"/>
        <path class="cls-2" d="m1321.36,145.67h67.61"/>
        <path class="cls-2" d="m1371.8,96.84v1.04s18.79,16.23,19.16,16.42"/>
        <path class="cls-2" d="m1355.75,115.44s.14,14.45.14,14.77c0,5.08,0,15.24,0,15.24"/>
        <line class="cls-2" x1="1369.73" y1="112.82" x2="1369.73" y2="120.51"/>
        <path class="cls-2" d="m1371.8,97.88c-.69.49-18.86,15.92-18.86,15.92l1.97,2.34"/>
        <path class="cls-2" d="m1376.5,142.7c0-4.46,0-13.62,0-13.62,0,0-.07-1.3-1.3-1.3,0-4.09-6.9-4.09-6.9,0-1.09,0-1.2,1.2-1.2,1.2v13.72"/>
        <line class="cls-2" x1="1355.75" y1="119.4" x2="1332.49" y2="119.41"/>
        <path class="cls-2" d="m1325.5,129.39v16.05"/>
        <path class="cls-2" d="m1336.59,123.55s13.12,0,19.08,0"/>
        <line class="cls-2" x1="1355.88" y1="129.1" x2="1321.88" y2="129.09"/>
        <line class="cls-2" x1="1336.59" y1="119.4" x2="1336.59" y2="123.55"/>
        <polyline class="cls-2" points="1371.8 101.36 1389.23 116.25 1390.96 114.3"/>
        <line class="cls-2" x1="1354.93" y1="116.15" x2="1371.8" y2="101.36"/>
        <rect class="cls-2" x="1364.18" y="112.5" width="15.17" height="8.32"/>
        <g>
          <path class="cls-2" d="m1343.62,132.12v10.51"/>
          <path class="cls-2" d="m1336.74,132.12v10.58"/>
          <path class="cls-2" d="m1350.28,137.44h-20.12"/>
          <rect class="cls-2" x="1329.84" y="131.89" width="20.76" height="11.05"/>
        </g>
        <rect class="cls-2" x="1367.11" y="144.69" width="9.39" height=".97"/>
        <rect class="cls-2" x="1367.11" y="143.72" width="9.39" height=".97"/>
        <rect class="cls-2" x="1367.11" y="142.74" width="9.39" height=".97"/>
        <rect class="cls-2" x="1365.56" y="142.7" width="1.55" height="2.97"/>
        <rect class="cls-2" x="1376.5" y="142.7" width="1.55" height="2.97"/>
      </g>
      <text class="cls-5" transform="translate(1338.07 167.11)"><tspan x="0" y="0">POOL</tspan></text>
    </g>
    <path class="cls-3" d="m1405.25,146.67c-1.76,0-1.76-2-3.52-2s-1.76,2-3.52,2-1.76-2-3.52-2-1.76,2-3.53,2-1.76-2-3.53-2"/>
  </g>
  <g>
    <rect class="cls-4" x="1449.72" y="94.49" width="71.03" height="71.03"/>
    <g>
      <g>
        <path class="cls-2" d="m1514.7,109.16v-5.59c-.06-.53-.22-.76-.75-.74h-2.51c-.6-.02-.94.15-.9.82,0,0,.03,1.73-.02,1.92"/>
        <path class="cls-2" d="m1466.39,123.55s-.79,0-1.11,0c-3.21.01-6.41.01-9.62,0-.45,0-.68,0-.68,0l-3.31,5.57"/>
        <path class="cls-2" d="m1483.98,115.26c-5.72,0-21.68,0-21.68,0v4.16"/>
        <path class="cls-2" d="m1517.44,114.88c-.01,9.57,0,21.21,0,30.78"/>
        <path class="cls-2" d="m1451.16,145.67h67.61"/>
        <path class="cls-2" d="m1501.6,96.84v1.04s18.79,16.23,19.16,16.42"/>
        <path class="cls-2" d="m1485.55,115.44s.14,14.45.14,14.77c0,5.08,0,15.24,0,15.24"/>
        <line class="cls-2" x1="1499.53" y1="112.82" x2="1499.53" y2="120.51"/>
        <path class="cls-2" d="m1501.6,97.88c-.69.49-18.86,15.92-18.86,15.92l1.97,2.34"/>
        <path class="cls-2" d="m1506.3,142.7c0-4.46,0-13.62,0-13.62,0,0-.07-1.3-1.3-1.3,0-4.09-6.9-4.09-6.9,0-1.09,0-1.2,1.2-1.2,1.2v13.72"/>
        <line class="cls-2" x1="1485.55" y1="119.4" x2="1462.29" y2="119.41"/>
        <path class="cls-2" d="m1455.3,129.39v16.05"/>
        <path class="cls-2" d="m1466.39,123.55s13.12,0,19.08,0"/>
        <line class="cls-2" x1="1485.68" y1="129.1" x2="1451.68" y2="129.09"/>
        <line class="cls-2" x1="1466.39" y1="119.4" x2="1466.39" y2="123.55"/>
        <polyline class="cls-2" points="1501.6 101.36 1519.03 116.25 1520.76 114.3"/>
        <line class="cls-2" x1="1484.73" y1="116.15" x2="1501.6" y2="101.36"/>
        <rect class="cls-2" x="1493.98" y="112.5" width="15.17" height="8.32"/>
        <g>
          <path class="cls-2" d="m1473.42,132.12v10.51"/>
          <path class="cls-2" d="m1466.54,132.12v10.58"/>
          <path class="cls-2" d="m1480.08,137.44h-20.12"/>
          <rect class="cls-2" x="1459.64" y="131.89" width="20.76" height="11.05"/>
        </g>
        <rect class="cls-2" x="1496.9" y="144.69" width="9.39" height=".97"/>
        <rect class="cls-2" x="1496.9" y="143.72" width="9.39" height=".97"/>
        <rect class="cls-2" x="1496.9" y="142.74" width="9.39" height=".97"/>
        <rect class="cls-2" x="1495.36" y="142.7" width="1.55" height="2.97"/>
        <rect class="cls-2" x="1506.3" y="142.7" width="1.55" height="2.97"/>
      </g>
      <text class="cls-5" transform="translate(1456.57 167.11)"><tspan x="0" y="0">FENCING</tspan></text>
    </g>
    <g>
      <path class="cls-3" d="m1470.19,141.54v-4.13,8.26-4.13Z"/>
      <path class="cls-3" d="m1474.95,141.54v-4.13,8.26-4.13Z"/>
      <path class="cls-3" d="m1479.7,141.54v-4.13,8.26-4.13Z"/>
      <path class="cls-3" d="m1484.46,141.54v-4.13,8.26-4.13Z"/>
      <path class="cls-3" d="m1489.22,141.54v-4.13,8.26-4.13Z"/>
      <path class="cls-3" d="m1493.98,141.54v-4.13,8.26-4.13Z"/>
      <path class="cls-3" d="m1498.74,141.54v-4.13,8.26-4.13Z"/>
      <path class="cls-3" d="m1503.5,141.54v-4.13,8.26-4.13Z"/>
      <path class="cls-3" d="m1508.26,141.54v-4.13,8.26-4.13Z"/>
      <path class="cls-3" d="m1513.01,141.54v-4.13,8.26-4.13Z"/>
      <path class="cls-3" d="m1517.77,141.54v-4.13,8.26-4.13Z"/>
      <line class="cls-3" x1="1517.77" y1="141.54" x2="1470.19" y2="141.54"/>
    </g>
  </g>
  <rect class="cls-1" x="222.44" y="63.25" width="1357.56" height="133.51"/>
</svg>