<?xml version="1.0" encoding="UTF-8"?>
<svg id="Layer_1" data-name="Layer 1" xmlns="http://www.w3.org/2000/svg" viewBox="0 0 72.64 53.6">
  <defs>
    <style>
      .cls-1 {
        stroke: #fff;
      }

      .cls-1, .cls-2 {
        fill: none;
        stroke-linecap: round;
        stroke-linejoin: round;
      }

      .cls-2 {
        stroke: #de7d6c;
        stroke-width: 4px;
      }
    </style>
  </defs>
  <line class="cls-2" x1="16.96" y1="23.75" x2="16.96" y2="27.9"/>
  <path class="cls-1" d="m65.27,13.51v-5.59c-.06-.53-.22-.76-.75-.74h-2.51c-.6-.02-.94.15-.9.82,0,0,.03,1.73-.02,1.92"/>
  <path class="cls-1" d="m16.96,27.9s-.79,0-1.11,0c-3.21.01-6.41.01-9.62,0-.45,0-.68,0-.68,0l-3.31,5.57"/>
  <path class="cls-1" d="m34.54,19.61c-5.72,0-21.68,0-21.68,0v4.16"/>
  <path class="cls-1" d="m68.01,19.24c-.01,9.57,0,21.21,0,30.78"/>
  <path class="cls-1" d="m1.72,50.02h67.61"/>
  <path class="cls-1" d="m52.17,1.19v1.04s18.79,16.23,19.16,16.42"/>
  <path class="cls-1" d="m36.12,19.79s.14,14.45.14,14.77c0,5.08,0,15.24,0,15.24"/>
  <line class="cls-1" x1="50.1" y1="17.17" x2="50.1" y2="24.86"/>
  <path class="cls-1" d="m52.17,2.23c-.69.49-18.86,15.92-18.86,15.92l1.97,2.34"/>
  <path class="cls-1" d="m56.87,47.05c0-4.46,0-13.62,0-13.62,0,0-.07-1.3-1.3-1.3,0-4.09-6.9-4.09-6.9,0-1.09,0-1.2,1.2-1.2,1.2v13.72"/>
  <line class="cls-1" x1="36.12" y1="23.75" x2="12.86" y2="23.76"/>
  <path class="cls-1" d="m5.86,33.74v16.05"/>
  <path class="cls-1" d="m16.96,27.9s13.12,0,19.08,0"/>
  <line class="cls-1" x1="36.25" y1="33.45" x2="2.24" y2="33.44"/>
  <polyline class="cls-1" points="52.17 5.71 69.59 20.6 71.33 18.65"/>
  <line class="cls-1" x1="35.3" y1="20.5" x2="52.17" y2="5.71"/>
  <rect class="cls-1" x="44.55" y="16.85" width="15.17" height="8.32"/>
  <g>
    <path class="cls-1" d="m23.99,36.47v10.51"/>
    <path class="cls-1" d="m17.11,36.47v10.58"/>
    <path class="cls-1" d="m30.64,41.8H10.53"/>
    <rect class="cls-1" x="10.2" y="36.24" width="20.76" height="11.05"/>
  </g>
  <rect class="cls-1" x="47.47" y="49.04" width="9.39" height=".97"/>
  <rect class="cls-1" x="47.47" y="48.07" width="9.39" height=".97"/>
  <rect class="cls-1" x="47.47" y="47.09" width="9.39" height=".97"/>
  <rect class="cls-1" x="45.93" y="47.05" width="1.55" height="2.97"/>
  <rect class="cls-1" x="56.87" y="47.05" width="1.55" height="2.97"/>
</svg>