<?xml version="1.0" encoding="UTF-8"?>
<svg id="Layer_1" data-name="Layer 1" xmlns="http://www.w3.org/2000/svg" viewBox="0 0 72.64 53.6">
  <defs>
    <style>
      .cls-1 {
        stroke: #fff;
      }

      .cls-1, .cls-2 {
        fill: none;
        stroke-linecap: round;
        stroke-linejoin: round;
      }

      .cls-2 {
        stroke: #de7d6c;
        stroke-width: 4px;
      }
    </style>
  </defs>
  <path class="cls-1" d="m64.38,14.57v-5.59c-.06-.53-.22-.76-.75-.74h-2.51c-.6-.02-.94.15-.9.82,0,0,.03,1.73-.02,1.92"/>
  <path class="cls-1" d="m16.07,28.95s-.79,0-1.11,0c-3.21.01-6.41.01-9.62,0-.45,0-.68,0-.68,0l-3.31,5.57"/>
  <path class="cls-1" d="m33.65,20.67c-5.72,0-21.68,0-21.68,0v4.16"/>
  <path class="cls-1" d="m67.12,20.29c-.01,9.57,0,21.21,0,30.78"/>
  <path class="cls-1" d="m.83,51.07h67.61"/>
  <path class="cls-2" d="m51.28,2.25v1.04s18.79,16.23,19.16,16.42"/>
  <path class="cls-1" d="m35.23,20.84s.14,14.45.14,14.77c0,5.08,0,15.24,0,15.24"/>
  <line class="cls-1" x1="49.21" y1="18.23" x2="49.21" y2="25.92"/>
  <path class="cls-2" d="m51.28,3.28c-.69.49-18.86,15.92-18.86,15.92l1.97,2.34"/>
  <path class="cls-1" d="m55.98,48.1c0-4.46,0-13.62,0-13.62,0,0-.07-1.3-1.3-1.3,0-4.09-6.9-4.09-6.9,0-1.09,0-1.2,1.2-1.2,1.2v13.72"/>
  <line class="cls-1" x1="35.23" y1="24.81" x2="11.97" y2="24.82"/>
  <path class="cls-1" d="m4.97,34.8v16.05"/>
  <path class="cls-1" d="m16.07,28.95s13.12,0,19.08,0"/>
  <line class="cls-1" x1="35.36" y1="34.5" x2="1.35" y2="34.49"/>
  <line class="cls-1" x1="16.07" y1="24.81" x2="16.07" y2="28.95"/>
  <polyline class="cls-1" points="51.28 6.77 68.7 21.65 70.44 19.7"/>
  <line class="cls-1" x1="34.41" y1="21.56" x2="51.28" y2="6.77"/>
  <rect class="cls-1" x="43.66" y="17.91" width="15.17" height="8.32"/>
  <g>
    <path class="cls-1" d="m23.1,37.52v10.51"/>
    <path class="cls-1" d="m16.22,37.52v10.58"/>
    <path class="cls-1" d="m29.75,42.85H9.64"/>
    <rect class="cls-1" x="9.31" y="37.3" width="20.76" height="11.05"/>
  </g>
  <rect class="cls-1" x="46.58" y="50.1" width="9.39" height=".97"/>
  <rect class="cls-1" x="46.58" y="49.12" width="9.39" height=".97"/>
  <rect class="cls-1" x="46.58" y="48.15" width="9.39" height=".97"/>
  <rect class="cls-1" x="45.04" y="48.1" width="1.55" height="2.97"/>
  <rect class="cls-1" x="55.98" y="48.1" width="1.55" height="2.97"/>
</svg>